<?xml version="1.0" encoding="UTF-8" standalone="no"?>
<!-- Created with Inkscape (http://www.inkscape.org/) -->

<svg
   xmlns:dc="http://purl.org/dc/elements/1.1/"
   xmlns:cc="http://creativecommons.org/ns#"
   xmlns:rdf="http://www.w3.org/1999/02/22-rdf-syntax-ns#"
   xmlns:svg="http://www.w3.org/2000/svg"
   xmlns="http://www.w3.org/2000/svg"
   xmlns:sodipodi="http://sodipodi.sourceforge.net/DTD/sodipodi-0.dtd"
   xmlns:inkscape="http://www.inkscape.org/namespaces/inkscape"
   width="150.28999"
   height="50"
   id="svg4776"
   version="1.1"
   inkscape:version="0.48.5 r10040"
   sodipodi:docname="inter.act logo2.svg">
  <defs
     id="defs4778" />
  <sodipodi:namedview
     id="base"
     pagecolor="#ffffff"
     bordercolor="#666666"
     borderopacity="1.0"
     inkscape:pageopacity="0.0"
     inkscape:pageshadow="2"
     inkscape:zoom="3.959798"
     inkscape:cx="100.15849"
     inkscape:cy="-14.858677"
     inkscape:document-units="px"
     inkscape:current-layer="layer1"
     showgrid="false"
     fit-margin-top="0"
     fit-margin-left="0"
     fit-margin-right="0"
     fit-margin-bottom="0"
     inkscape:window-width="1400"
     inkscape:window-height="988"
     inkscape:window-x="-8"
     inkscape:window-y="-8"
     inkscape:window-maximized="1" />
  <metadata
     id="metadata4781">
    <rdf:RDF>
      <cc:Work
         rdf:about="">
        <dc:format>image/svg+xml</dc:format>
        <dc:type
           rdf:resource="http://purl.org/dc/dcmitype/StillImage" />
        <dc:title></dc:title>
      </cc:Work>
    </rdf:RDF>
  </metadata>
  <g
     inkscape:label="Layer 1"
     inkscape:groupmode="layer"
     id="layer1"
     transform="translate(-178.08532,-102.08611)">
    <rect
       style="fill:#ffffff;fill-opacity:1;fill-rule:nonzero;stroke:none"
       id="rect3840"
       width="235.6149"
       height="141.15179"
       x="-944.02277"
       y="686.84558"
       inkscape:transform-center-x="-303.03118"
       inkscape:transform-center-y="397.48248"
       inkscape:export-filename="C:\Users\Daniel\Inkscape Projekte\inter.act logo2.png"
       inkscape:export-xdpi="400"
       inkscape:export-ydpi="400" />
    <g
       id="g3006"
       transform="translate(2.7779195,-3.5355339)">
      <g
         transform="matrix(1.1263874,0,0,1.1263874,21.065723,-12.834986)"
         id="text3875"
         style="font-size:28px;font-style:normal;font-variant:normal;font-weight:normal;font-stretch:normal;text-align:start;line-height:125%;letter-spacing:0px;word-spacing:0px;writing-mode:lr-tb;text-anchor:start;fill:#000000;fill-opacity:1;stroke:none;font-family:Terminator Two;-inkscape-font-specification:Terminator Two">
        <path
           inkscape:connector-curvature="0"
           id="path3966"
           d="m 143.60088,137.16399 -4.19983,0 0,-18.19983 4.19983,0 0,18.19983 z" />
        <path
           inkscape:connector-curvature="0"
           id="path3968"
           d="m 144.97917,137.16399 0,-12.60035 c 0,-1.53066 0.55072,-2.84188 1.65216,-3.93365 1.10144,-1.09174 2.4175,-1.63762 3.94818,-1.63763 l 8.39966,-0.0282 c 1.54947,0.0188 2.87022,0.57409 3.96228,1.66583 1.09202,1.09177 1.63804,2.41239 1.63806,3.96185 l 0,12.57215 -4.20068,0 0,-12.60035 c -2e-5,-0.35431 -0.13061,-0.66221 -0.39178,-0.9237 -0.26121,-0.26146 -0.55045,-0.41071 -0.86774,-0.44776 -0.0188,2e-5 -0.0422,2e-5 -0.0701,0 -0.0279,2e-5 -0.0513,2e-5 -0.0701,0 l -8.39966,-0.0282 c -0.3737,0.0188 -0.70054,0.1635 -0.98053,0.43408 -0.27999,0.2706 -0.41998,0.60186 -0.41998,0.99377 l 0,12.57215 -4.19983,0 z" />
        <path
           inkscape:connector-curvature="0"
           id="path3970"
           style="fill:#008000"
           d="m 173.00566,123.16399 -6.9718,0 0,-4.19983 18.17163,0 0,4.19983 -7,0 0,14.02819 -4.19983,0 0,-14.02819 z" />
        <path
           inkscape:connector-curvature="0"
           id="path3972"
           d="m 189.81181,131.56364 c 0,0.29908 0.098,0.56526 0.29395,0.79853 0.19596,0.23328 0.41528,0.40574 0.65796,0.51739 0.0746,0.0376 0.14939,0.0658 0.2243,0.0846 0.0749,0.0188 0.14967,0.0282 0.22431,0.0282 l 11.19983,-0.0282 0,4.19983 -11.19983,0 c -1.53069,0 -2.84675,-0.54602 -3.94819,-1.63807 -1.10144,-1.09203 -1.65216,-2.40339 -1.65216,-3.93408 0,1e-5 0,-0.3687 0,-1.10614 0,-0.73742 0,-1.54477 0,-2.42206 0,-0.80264 0,-1.54918 0,-2.23962 0,-0.69042 0,-1.10114 0,-1.23218 0,-1.54946 0.55072,-2.87008 1.65216,-3.96185 1.10144,-1.09174 2.4175,-1.63762 3.94819,-1.63763 l 11.03149,-0.0282 0,4.19983 -11.03149,0 c -0.37371,0.0188 -0.70055,0.1635 -0.98053,0.43408 -0.28,0.2706 -0.41999,0.60186 -0.41999,0.99377 l 0,1.37232 11.90052,0 0,4.19983 -11.90052,0 0,1.39965 z" />
        <path
           inkscape:connector-curvature="0"
           id="path3974"
           d="m 203.82292,118.96416 c 0,0.0188 0.72333,0.0282 2.16998,0.0282 1.44666,10e-6 3.03786,10e-6 4.77363,0 1.49364,10e-6 2.89842,10e-6 4.21435,0 1.31591,10e-6 2.16071,10e-6 2.53442,0 1.5489,10e-6 2.86937,0.54589 3.96143,1.63763 1.09202,1.09177 1.63804,2.41239 1.63806,3.96185 -2e-5,0.63462 -0.0933,1.23661 -0.27984,1.80597 -0.18659,0.56939 -0.42912,1.09675 -0.7276,1.58209 0.42893,0.48536 0.75549,1.03608 0.97967,1.65216 0.22414,0.6161 0.33622,1.26936 0.33624,1.95978 l 0,5.57215 -4.20068,0 0,-5.60035 c -2e-5,-0.33552 -0.11665,-0.63402 -0.34991,-0.8955 -0.2333,-0.26147 -0.50858,-0.42012 -0.82587,-0.47596 -0.037,1e-5 -0.57366,1e-5 -1.60986,0 -1.03623,1e-5 -2.17014,1e-5 -3.40174,0 -1.25098,1e-5 -2.39913,1e-5 -3.44446,0 -1.04533,1e-5 -1.56799,1e-5 -1.56799,0 l 0,7 -4.19983,0 0,-18.22802 z m 13.83167,4.19983 -9.63184,0 0,2.80017 9.63184,0 c 0.37368,0.0188 0.70052,-0.11179 0.98053,-0.39179 0.27997,-0.27997 0.41996,-0.60682 0.41998,-0.98053 -2e-5,-0.39191 -0.14001,-0.72317 -0.41998,-0.99377 -0.28001,-0.27058 -0.60685,-0.40587 -0.98053,-0.40589 z" />
        <path
           inkscape:connector-curvature="0"
           id="path3976"
           d="m 229.02275,137.16399 -4.19983,0 0,-4.19983 4.19983,0 0,4.19983 z" />
      </g>
      <g
         transform="matrix(0.92765291,0,0,0.92765291,67.080268,13.750003)"
         id="g3978">
        <path
           inkscape:connector-curvature="0"
           id="text3899"
           d="m 259.29966,114.94648 -0.54913,2.47104 c -0.45945,2.20633 -1.09685,5.46649 -1.28127,6.31488 -3e-5,1.52233 -0.27884,3.16693 -0.85419,4.94209 -0.57539,1.77519 -1.09314,3.41977 -1.9043,4.33314 l 0.68404,3.29354 c 0.20328,0.84631 0.39879,1.32379 1.02424,1.76345 l 5.02546,-5.23838 c -3e-5,-0.30446 0.1835,-0.63566 0.38721,-1.6502 l 3.44726,-16.22958 -5.97931,0 z"
           style="font-size:51.96397018px;font-style:normal;font-variant:normal;font-weight:normal;font-stretch:normal;text-align:start;line-height:125%;letter-spacing:0px;word-spacing:0px;writing-mode:lr-tb;text-anchor:start;fill:#000000;fill-opacity:1;stroke:none;font-family:Terminator Two;-inkscape-font-specification:Terminator Two"
           sodipodi:nodetypes="cccccccccccc" />
        <path
           style="font-size:28px;font-style:normal;font-variant:normal;font-weight:normal;font-stretch:normal;text-align:start;line-height:125%;letter-spacing:0px;word-spacing:0px;writing-mode:lr-tb;text-anchor:start;fill:#000000;fill-opacity:1;stroke:none;font-family:Terminator Two;-inkscape-font-specification:Terminator Two"
           sodipodi:nodetypes="ccsccccccsssssscccsssssccccccsc"
           inkscape:connector-curvature="0"
           id="path3884-0"
           d="m 261.78072,133.27628 c -6e-5,0.38059 0.0867,0.6663 0.26007,0.85712 0.17334,0.19084 0.39853,0.28625 0.67555,0.28625 0.72732,0 1.67986,-0.45038 2.85763,-1.35111 1.55934,-1.17774 2.83248,-2.754 3.81941,-4.7289 0.98687,-1.97484 1.48033,-4.01896 1.48037,-6.13233 -4e-5,-3.81014 -1.37707,-6.98837 -4.13104,-9.53467 -2.75407,-2.54625 -6.6081,-3.8194 -11.56215,-3.81943 -4.19078,3e-5 -7.74115,0.84872 -10.65107,2.54602 -2.90997,1.69739 -5.1013,4.09645 -6.57398,7.19719 -1.47269,3.10081 -2.20904,6.33111 -2.20904,9.69089 0,3.25621 0.82277,6.21824 2.46831,8.88609 1.64554,2.66786 3.95791,4.61656 6.93714,5.84609 2.97919,1.22952 6.39185,1.84428 10.23798,1.84428 3.67165,0 6.84116,-0.51089 9.50851,-1.53269 2.66731,-1.02177 4.815,-2.55499 6.44314,-4.59962 l 4.93664,0 c -1.55838,3.11875 -3.93127,5.57887 -7.11871,7.38036 -3.67171,2.00867 -8.14053,3.01303 -13.40642,3.01303 -5.12748,0 -9.5445,-0.85742 -13.25103,-2.57217 -3.70658,-1.71481 -6.4606,-4.25236 -8.26208,-7.61268 -1.80148,-3.36034 -2.70221,-7.01536 -2.70221,-10.96508 0,-4.36414 1.02205,-8.41693 3.06616,-12.15841 2.0441,-3.74143 4.85891,-6.54752 8.44444,-8.41828 3.5855,-1.87069 7.66445,-2.80606 12.2369,-2.80609 3.91479,3e-5 7.38773,0.75357 10.41876,2.26057 3.03097,1.50708 5.34334,3.65481 6.93713,6.44315 1.59369,2.78842 2.39056,5.82815 2.39061,9.11919 -5e-5,3.94975 -1.21267,7.51835 -3.63785,10.70582 -3.04796,4.01842 -6.94535,6.02764 -11.69218,6.02764 -1.31624,0 -2.29467,-0.22516 -2.93532,-0.67554" />
        <path
           style="fill:#008000;fill-opacity:1;fill-rule:nonzero;stroke:none"
           d="m 252.06961,114.53442 c -2.98255,-0.0509 -5.8119,1.39665 -7.78923,3.57893 -2.45922,2.68584 -4.07748,6.21488 -4.34444,9.85688 -0.12686,2.47745 -0.17026,5.15459 1.26648,7.30442 1.55057,2.63909 4.58912,4.34977 7.671,4.08348 2.17718,0.0346 4.34573,-0.94284 5.87953,-2.46401 0.18408,-0.62411 -0.2893,-1.42526 -0.36552,-2.11838 -0.16001,-0.37303 -0.13824,-1.08217 -0.41195,-1.28913 -1.26531,1.15392 -2.94494,2.08273 -4.71536,1.75199 -2.11371,-0.27816 -3.44496,-2.34973 -3.52164,-4.35948 -0.23141,-3.0928 0.40453,-6.29921 1.90382,-9.0211 1.26267,-2.28193 4.02248,-3.97771 6.64885,-3.0857 1.57808,0.57634 2.42974,2.19229 2.78187,3.73283 l 1.01572,-4.97579 c -1.23568,-2.01583 -3.45005,-3.14043 -5.79027,-2.99889 l -0.12625,0.002 -0.10261,0.002 z"
           id="path3963"
           inkscape:connector-curvature="0"
           sodipodi:nodetypes="cccccccccccccccccc" />
      </g>
    </g>
  </g>
</svg>
