<?xml version="1.0" encoding="UTF-8" standalone="no"?>
<svg
   xmlns:dc="http://purl.org/dc/elements/1.1/"
   xmlns:cc="http://creativecommons.org/ns#"
   xmlns:rdf="http://www.w3.org/1999/02/22-rdf-syntax-ns#"
   xmlns:svg="http://www.w3.org/2000/svg"
   xmlns="http://www.w3.org/2000/svg"
   xmlns:sodipodi="http://sodipodi.sourceforge.net/DTD/sodipodi-0.dtd"
   xmlns:inkscape="http://www.inkscape.org/namespaces/inkscape"
   width="120.30076"
   version="1.1"
   height="72.459999"
   viewBox="0 0 96.240602 57.967997"
   id="svg2"
   inkscape:version="0.48.5 r10040"
   sodipodi:docname="test.svg">
  <metadata
     id="metadata15">
    <rdf:RDF>
      <cc:Work
         rdf:about="">
        <dc:format>image/svg+xml</dc:format>
        <dc:type
           rdf:resource="http://purl.org/dc/dcmitype/StillImage" />
        <dc:title></dc:title>
      </cc:Work>
    </rdf:RDF>
  </metadata>
  <sodipodi:namedview
     pagecolor="#ffffff"
     bordercolor="#666666"
     borderopacity="1"
     objecttolerance="10"
     gridtolerance="10"
     guidetolerance="10"
     inkscape:pageopacity="0"
     inkscape:pageshadow="2"
     inkscape:window-width="1015"
     inkscape:window-height="584"
     id="namedview13"
     showgrid="false"
     fit-margin-top="0"
     fit-margin-left="0"
     fit-margin-right="0"
     fit-margin-bottom="0"
     inkscape:zoom="3.588117"
     inkscape:cx="101.00533"
     inkscape:cy="44.722087"
     inkscape:window-x="98"
     inkscape:window-y="11"
     inkscape:window-maximized="0"
     inkscape:current-layer="svg2" />
  <defs
     id="defs4" />
  <g
     id="g3832"
     transform="translate(0,5.6011073)">
    <g
       style="opacity:0.73280005"
       transform="matrix(0.09690789,0.06593239,-0.06593239,0.09690789,42.150282,-53.602551)"
       id="g3776">
      <path
         inkscape:connector-curvature="0"
         id="path3782"
         d="m 249.9049,676.41285 c -0.79874,-0.50529 -1.81124,-0.69684 -2.25,-0.42567 -0.74592,0.461 -1.18818,-1.40045 -1.05528,-4.44167 0.0316,-0.72416 -0.19048,-1.06866 -0.49359,-0.76554 -1.13012,1.13012 -3.10957,-3.00652 -2.54424,-5.31694 0.40538,-1.6567 0.23245,-2.18 -0.5588,-1.69099 -1.76341,1.08986 -1.41487,-4.06964 0.46917,-6.94504 0.99185,-1.51376 1.18478,-2.46482 0.5,-2.46482 -1.7983,0 -1.28731,-2.1816 1.13499,-4.84568 1.90334,-2.09332 1.9675,-2.37277 0.41644,-1.81377 -1.26561,0.45612 -1.653,0.27341 -1.25064,-0.58987 0.3206,-0.68787 0.86069,-2.03818 1.20019,-3.00068 0.62363,-1.76801 2.89926,-2.38297 3.7005,-1 0.23899,0.4125 -0.38011,3.21685 -1.37577,6.23188 -2.15092,6.51338 -1.62131,8.16033 0.71309,2.21752 0.89776,-2.28549 2.49898,-4.43051 3.55826,-4.76671 1.8526,-0.58799 1.85667,-0.66278 0.10694,-1.96341 -2.15743,-1.6037 -1.01982,-4.26061 2.61333,-6.10346 2.93129,-1.48685 5.25103,-3.74431 2.9467,-2.8676 -2.56363,0.97537 -3.23093,-2.38864 -0.86012,-4.33605 1.11296,-0.91419 2.21349,-2.67636 2.44562,-3.91593 0.23214,-1.23957 0.69914,-2.70207 1.03778,-3.25 0.33864,-0.54793 -0.19834,-1.00313 -1.1933,-1.01155 -1.10493,-0.009 -1.38077,-0.30126 -0.70872,-0.75 1.11879,-0.74704 3.3997,-4.59001 3.3997,-5.72797 0,-0.34361 -0.49821,-0.31684 -1.10713,0.0595 -1.73047,1.06949 0.0243,-3.84235 1.89923,-5.31621 0.87459,-0.6875 2.34905,-1.25 3.27658,-1.25 0.92754,0 2.30403,-0.7875 3.05887,-1.75 1.25298,-1.59767 1.21537,-1.62659 -0.43208,-0.3323 -1.59156,1.25039 -2.05603,1.16618 -3.93573,-0.71352 l -2.13121,-2.13121 2.3567,-0.8718 c 1.63758,-0.60579 1.97952,-1.10492 1.1206,-1.63577 -0.9399,-0.58088 -0.82391,-1.21943 0.48402,-2.66468 1.346,-1.48731 1.41454,-1.90556 0.31514,-1.92296 -0.84654,-0.0134 -0.4113,-0.79952 1.09501,-1.97777 1.95197,-1.52685 2.12932,-1.9604 0.80902,-1.97776 -0.93004,-0.0122 -1.9691,0.42776 -2.30902,0.97776 -0.33992,0.55 -1.03487,1 -1.54433,1 -0.50947,0 0.75459,-1.56282 2.80901,-3.47294 2.86368,-2.66253 3.31318,-3.47926 1.9263,-3.5 -0.99496,-0.0149 -1.55012,0.39185 -1.23369,0.90384 0.31644,0.512 0.11799,1.21356 -0.44098,1.55902 -0.95158,0.58811 -1.46088,-1.39121 -1.09096,-4.23992 0.2316,-1.78352 -0.98164,-1.54406 -2.5333,0.5 -0.73065,0.9625 -1.34276,1.2426 -1.36025,0.62244 -0.0494,-1.75078 2.77319,-3.66125 4.45547,-3.0157 0.832,0.31927 1.51273,0.18211 1.51273,-0.30479 0,-0.48691 -0.54845,-1.0681 -1.21877,-1.29154 -0.78139,-0.26046 -0.0804,-1.78725 1.95326,-4.25446 1.74461,-2.11652 2.92947,-4.24065 2.63304,-4.7203 -0.29644,-0.47964 0.6475,-2.42764 2.09763,-4.32887 1.45014,-1.90123 2.19193,-3.45678 1.64841,-3.45678 -1.05726,0 -1.29626,-7.83062 -0.28993,-9.4994 0.33147,-0.54967 0.48087,-2.16059 0.332,-3.57982 -0.14887,-1.41923 0.69149,-5.36067 1.86746,-8.75874 1.17598,-3.39808 1.93767,-6.73716 1.69265,-7.42018 -0.24502,-0.68302 -0.0405,-2.02936 0.45456,-2.99186 0.56108,-1.09092 0.5294,-1.75 -0.0841,-1.75 -0.5484,0 -0.31505,-1.60139 0.52701,-3.61673 0.83114,-1.98921 1.2723,-4.23921 0.98036,-5 -0.29195,-0.7608 -0.0468,-1.38327 0.54479,-1.38327 0.59159,0 0.81293,-0.68454 0.49187,-1.5212 -1.15357,-3.00615 4.14322,-12.11441 10.06637,-17.30996 4.95475,-4.3461 6.60534,-5.17653 12.26434,-6.17028 3.59648,-0.63156 9.05462,-2.23255 12.12921,-3.55777 4.30678,-1.85631 6.71734,-2.29226 10.5,-1.89891 2.70041,0.28081 6.25984,0.451 7.90984,0.3782 11.33359,-0.50002 12.24748,-0.36708 16.17179,2.35247 2.16464,1.5001 4.68619,2.72745 5.60345,2.72745 5.06613,0 20.56908,9.62598 22.22184,13.79783 1.83637,4.63531 1.40455,7.19273 -1.70524,10.09908 -1.71144,1.59949 -3.18109,3.73952 -3.26587,4.75562 -0.1879,2.25186 -7.3655,9.56468 -8.62425,8.78673 -0.49595,-0.30651 -0.95797,-0.0807 -1.02672,0.50172 -0.0687,0.58246 -0.19631,1.62152 -0.28346,2.30902 -0.0872,0.6875 0.2987,1.5662 0.85744,1.95267 0.60978,0.42177 -0.17568,1.9464 -1.96486,3.8139 -1.85248,1.93358 -2.31898,2.85729 -1.23243,2.44034 0.96157,-0.36899 1.74831,-1.07274 1.74831,-1.5639 0,-0.49115 0.45,-0.89301 1,-0.89301 2.52504,0 0.5322,2.13084 -4.25,4.5443 -4.4553,2.24848 -6.66129,2.67272 -14.57335,2.80262 -7.33266,0.1204 -9.57457,-0.1745 -10.5,-1.38116 -0.64716,-0.84384 -2.82465,-2.49286 -4.83887,-3.66449 -2.91916,-1.69801 -4.39525,-1.96492 -7.27491,-1.31545 -4.03143,0.90924 -10.39456,5.34492 -11.28972,7.86997 -0.32059,0.90432 -1.7282,2.59611 -3.12802,3.75955 -1.94978,1.62053 -2.53406,3.02403 -2.49779,6 0.0348,2.85116 -0.94151,5.39276 -3.66951,9.5532 -2.25433,3.43807 -3.10225,5.4327 -2.15489,5.06916 0.91105,-0.3496 0.28308,1.03871 -1.50689,3.33146 -2.93018,3.75323 -5.8808,10.43084 -4.60904,10.43084 0.33163,0 -0.0885,0.7875 -0.93374,1.75 -1.8989,2.16246 -3.03493,5.70824 -3.23436,10.0951 -0.12129,2.66801 -1.25387,4.3718 -5.59549,8.41749 l -5.44342,5.0724 5.297,-3.78716 c 2.91335,-2.08294 5.47319,-3.61098 5.68853,-3.39564 0.7523,0.7523 -2.72956,6.81502 -3.60366,6.2748 -0.48503,-0.29976 -0.88187,-0.0685 -0.88187,0.51399 0,0.58246 -0.64844,1.05902 -1.44098,1.05902 -0.79254,0 -1.76207,0.51953 -2.15451,1.15451 -0.44208,0.7153 -0.27432,0.88306 0.44098,0.44098 2.08114,-1.28621 1.17471,0.85256 -1.39421,3.28973 -1.38279,1.31188 -2.23007,2.66188 -1.88283,3 0.34723,0.33813 2.19334,-1.18467 4.10247,-3.384 3.11759,-3.59148 3.57331,-3.81619 4.47433,-2.20616 0.5884,1.05142 1.69606,1.57719 2.67897,1.2716 2.18221,-0.67845 4.63459,0.88196 3.7177,2.36551 -0.39287,0.63568 -0.0597,2.15484 0.74037,3.3759 2.37504,3.62477 2.67095,15.31896 0.54194,21.41695 -1.00333,2.87376 -1.84278,6.24876 -1.86545,7.5 -0.068,3.75559 -4.24734,11.24357 -6.45878,11.5721 -3.17296,0.47139 -9.5,3.41655 -9.5,4.42214 0,0.50353 -0.91963,0.62364 -2.04362,0.2669 -2.34315,-0.74369 -10.25476,0.90423 -17.23971,3.59087 -2.63083,1.01191 -4.51677,1.40854 -4.19098,0.8814 0.32579,-0.52714 0.11579,-0.95843 -0.46667,-0.95843 -0.58246,0 -1.05902,0.45 -1.05902,1 0,1.23688 -1.04869,1.25488 -2.95225,0.0507 z m 25.28558,-40.05138 c 0.64167,-3.8e-4 1.23157,-1.12538 1.31088,-2.5 0.0793,-1.37461 -2.2e-4,-2.49929 -0.17675,-2.49929 -0.45158,0 -3.48444,6.17904 -3.38851,6.90364 0.0434,0.328 0.30592,0.0339 0.58333,-0.65364 0.27741,-0.6875 1.02939,-1.25032 1.67105,-1.25071 z m 3.63604,-9.49929 c 0,-0.55 -0.43621,-0.325 -0.96937,0.5 -0.53316,0.825 -0.96937,1.95 -0.96937,2.5 0,0.55 0.43621,0.325 0.96937,-0.5 0.53316,-0.825 0.96937,-1.95 0.96937,-2.5 z m 0.0306,-8.55902 c 0,-0.58246 -0.45,-0.7809 -1,-0.44098 -0.55,0.33992 -1,0.81648 -1,1.05902 0,0.24254 0.45,0.44098 1,0.44098 0.55,0 1,-0.47656 1,-1.05902 z m -8,57.0942 c 0,-0.94405 3.16183,-3.03518 4.58925,-3.03518 0.3964,0 -0.0938,0.9 -1.08925,2 -1.93914,2.14273 -3.5,2.60438 -3.5,1.03518 z m 11,-3.91715 c 0,-0.55 0.45,-1.27811 1,-1.61803 0.55,-0.33992 1,-0.16803 1,0.38197 0,0.55 -0.45,1.27811 -1,1.61803 -0.55,0.33992 -1,0.16803 -1,-0.38197 z m 7,-54.51104 c 0,-0.76616 0.675,-1.65203 1.5,-1.96862 0.825,-0.31658 1.5,-0.13972 1.5,0.39301 0,0.53274 -0.47656,0.96862 -1.05902,0.96862 -0.58246,0 -0.7809,0.45 -0.44098,1 0.33992,0.55 0.14148,1 -0.44098,1 -0.58246,0 -1.05902,-0.62686 -1.05902,-1.39301 z m 160.40602,-64.76669 c -3.68352,-4.99315 -5.51754,-13.81455 -4.28086,-20.5903 0.92072,-5.04456 7.42064,-19.25 8.80815,-19.25 0.45323,0 1.42195,-1.4625 2.15272,-3.25 1.7116,-4.18663 8.74177,-11.75 10.92167,-11.75 0.92528,0 2.48721,-0.88939 3.47096,-1.97642 0.98375,-1.08703 2.29099,-1.68988 2.90499,-1.33967 0.61399,0.35021 0.82608,0.31182 0.4713,-0.0853 -0.35478,-0.39713 0.45882,-1.91315 1.80801,-3.36894 1.34918,-1.4558 4.20028,-5.36552 6.33577,-8.68829 2.13549,-3.32276 4.25966,-6.45915 4.72037,-6.96975 0.46071,-0.51061 0.66935,-2.36996 0.46366,-4.13189 -0.40372,-3.45811 1.47203,-5.59402 2.91373,-3.31786 0.54699,0.86359 0.8786,-1.18199 0.8882,-5.47887 0.012,-5.3895 0.30839,-6.74452 1.38476,-6.33148 1.05153,0.40351 1.52884,-1.23342 2.05602,-7.051 0.37761,-4.16707 1.36813,-8.89451 2.20116,-10.50541 1.1117,-2.14979 1.42931,-5.34056 1.19398,-11.99497 -0.31817,-8.99718 -0.3434,-9.07599 -3.32061,-10.37396 -2.07154,-0.90313 -2.42051,-1.32002 -1.12756,-1.34705 3.22962,-0.0675 -0.18763,-3.03914 -3.49488,-3.03914 -1.58266,0 -2.87756,-0.37206 -2.87756,-0.82681 0,-0.45474 -1.2375,-0.64656 -2.75,-0.42626 -1.5125,0.2203 -4.1,-0.15178 -5.75,-0.82685 -1.65,-0.67507 -3.53154,-1.33889 -4.1812,-1.47515 -4.45166,-0.93376 -10.29395,-9.44916 -13.70328,-19.97317 -2.84337,-8.77696 -0.39507,-19.84058 5.53716,-25.02198 6.60515,-5.76915 10.32913,-7.45071 16.40107,-7.40589 3.27044,0.0241 7.74625,0.69237 9.94625,1.48495 2.2,0.79257 6.25,1.46816 9,1.50129 3.12364,0.0376 6.57034,0.88765 9.18455,2.26506 5.94238,3.131 18.14283,14.49282 20.50284,19.09352 1.09713,2.13878 4.23849,6.13241 6.9808,8.87472 4.08778,4.08778 4.87483,5.42902 4.36883,7.44508 -0.44268,1.76381 -0.27858,2.2498 0.58042,1.71891 0.82899,-0.51235 1.03547,-0.12016 0.67085,1.27417 -0.28972,1.10789 -0.13004,2.72326 0.35485,3.58971 0.51463,0.91958 0.5046,1.80837 -0.0241,2.13512 -0.49813,0.30787 -1.20061,-0.61523 -1.56104,-2.05133 -0.36044,-1.4361 -0.87104,-2.3954 -1.13466,-2.13178 -0.26362,0.26362 -0.0181,1.69244 0.54565,3.17514 0.83139,2.18673 0.60061,3.48764 -1.22203,6.88869 -1.23583,2.30607 -2.58447,4.34286 -2.99697,4.52619 -0.4125,0.18334 -0.73999,1.08334 -0.72776,2 0.0275,2.05962 3.17092,-1.63124 5.60692,-6.58333 0.8793,-1.7875 1.94167,-3.25 2.36082,-3.25 1.04706,0 -1.46823,11.66641 -2.88277,13.37082 -0.62794,0.75662 -0.88458,2.04578 -0.57029,2.86479 0.31428,0.81901 -0.95349,4.81355 -2.81727,8.87675 -1.86379,4.0632 -4.17484,9.52371 -5.13567,12.13447 -0.96084,2.61075 -2.82018,6.66075 -4.13188,9 -1.3117,2.33924 -3.04071,5.6885 -3.84225,7.44278 -0.80153,1.75429 -3.24758,5.13181 -5.43567,7.5056 -3.03897,3.29689 -4.15156,5.47113 -4.71197,9.2082 -0.69218,4.61584 -0.80378,4.76114 -1.97534,2.57207 -1.11478,-2.083 -1.28694,-1.6126 -1.68427,4.60218 -0.29406,4.59948 -1.34726,8.9357 -3.13861,12.92234 -2.68441,5.97412 -2.69489,5.98315 -2.43002,2.09446 0.1743,-2.55883 -0.19474,-4.06297 -1.07024,-4.36209 -0.98337,-0.33598 -1.2557,0.47875 -1.03116,3.08498 0.19051,2.21122 -0.30136,4.22538 -1.30944,5.36209 -1.99949,2.2546 -5.0572,11.13281 -4.27185,12.40353 0.7695,1.24508 -0.43929,4.91703 -1.61867,4.91703 -0.51293,0 -0.99274,-0.7875 -1.06622,-1.75 -0.0735,-0.9625 -0.45822,0.5 -0.85495,3.25 -0.81956,5.68084 -0.49634,6.89518 0.90369,3.39518 1.24524,-3.11302 1.35672,-0.32988 0.15468,3.86142 -0.5736,2 -0.5736,3.2434 0,3.2434 0.5116,0 0.93019,-0.45 0.93019,-1 0,-0.55 0.49878,-1 1.10841,-1 1.53777,0 0.25129,4.68611 -2.25137,8.20076 -1.10548,1.55252 -2.46477,2.54167 -3.02064,2.19813 -0.66982,-0.41397 -0.64403,-0.99126 0.0765,-1.71176 1.45698,-1.45698 1.38543,-3.74957 -0.10728,-3.43713 -0.65692,0.1375 -1.47739,-1.1 -1.82326,-2.75 l -0.62886,-3 -1.63527,3.5 c -1.61311,3.45257 -1.62838,3.45934 -1.127,0.5 l 0.50826,-3 -1.95469,3.5 c -1.07508,1.925 -2.33496,3.45647 -2.79973,3.40328 -0.46477,-0.0532 -0.70373,0.73737 -0.53103,1.75682 0.17271,1.01945 -0.38979,2.12362 -1.25,2.45371 -0.8602,0.33009 -1.56401,1.42546 -1.56401,2.43416 0,1.0087 -0.44199,2.10716 -0.98221,2.44103 -0.87427,0.54034 -0.8489,-1.44144 0.13428,-10.489 0.0897,-0.825 0.0636,-2.4 -0.0579,-3.5 -0.19675,-1.7812 -0.33897,-1.7265 -1.29997,0.5 -0.59347,1.375 -1.35245,4.26337 -1.68661,6.4186 -0.62445,4.02749 -3.01632,6.1902 -3.22357,2.91473 -0.10591,-1.67379 -0.1558,-1.68104 -0.57333,-0.0833 -0.25152,0.9625 -0.87432,1.75 -1.38399,1.75 -1.19029,0 -1.16876,-0.67915 0.0965,-3.04324 0.82553,-1.54252 0.72896,-1.79886 -0.5,-1.32727 -0.83773,0.32147 -1.58977,1.09884 -1.6712,1.7275 -0.0814,0.62865 -0.23981,1.81801 -0.35194,2.64301 -0.11213,0.825 -0.27051,2.31406 -0.35194,3.30902 -0.0814,0.99496 -0.59928,1.53015 -1.15076,1.18931 -0.6545,-0.4045 -0.66672,-1.24751 -0.0352,-2.42754 0.93913,-1.75477 0.48943,-3.07079 -1.04932,-3.07079 -0.41463,0 -1.03853,1.29602 -1.38644,2.88004 -0.63214,2.87808 -3.21056,3.76253 -4.73686,1.62483 -0.42666,-0.59757 -1.35817,-0.19806 -2.33164,1 -1.40762,1.73237 -1.54603,1.75782 -1.05094,0.19319 0.33333,-1.0534 0.15953,-1.54814 -0.41836,-1.19098 -0.5437,0.33602 -0.98855,1.2594 -0.98855,2.05194 0,0.79254 -0.45,1.44098 -1,1.44098 -0.55,0 -1,-0.53601 -1,-1.19113 0,-0.65512 -0.58618,-0.38949 -1.30261,0.5903 -1.06025,1.44998 -1.48658,1.53205 -2.29137,0.44113 z m 46.19815,-102.56947 c -0.33229,-0.33229 -0.56864,0.25834 -0.52522,1.3125 0.048,1.16495 0.28494,1.4019 0.60416,0.60417 0.28887,-0.72188 0.25335,-1.58438 -0.0789,-1.91667 z M 376.85715,524.3308 c 0,-0.53274 0.675,-0.96862 1.5,-0.96862 0.825,0 1.5,0.17686 1.5,0.39301 0,0.21616 -0.675,0.65203 -1.5,0.96862 -0.825,0.31658 -1.5,0.13972 -1.5,-0.39301 z m 7.68969,-25.70751 c -0.95639,-0.95638 -2.50169,-1.74388 -3.43399,-1.75 -1.1917,-0.008 -1.90212,-1.19901 -2.39219,-4.01111 -0.3834,-2.2 -1.13043,-5.125 -1.66008,-6.5 -0.81458,-2.11471 -0.32219,-8.31926 1.07189,-13.50678 1.44967,-5.39438 12.57958,-11.57817 16.47468,-9.15335 0.6875,0.42799 1.25,0.50117 1.25,0.16261 0,-0.33855 1.33093,0.17065 2.95762,1.13156 4.10707,2.4261 5.54353,6.54335 5.53544,15.86596 -0.009,9.85494 -1.27747,12.03306 -9.53038,16.35912 -6.92376,3.62934 -7.91093,3.76406 -10.27299,1.40199 z m -26.41886,-1.86528 c 0.33229,-0.33229 1.19479,-0.36781 1.91667,-0.0789 0.79773,0.31922 0.56078,0.55618 -0.60417,0.60416 -1.05416,0.0434 -1.64479,-0.19293 -1.3125,-0.52522 z m -56.52083,-6.47741 c -1.94659,-1.13214 -2.29831,-5.02538 -0.72036,-7.97381 0.56631,-1.05815 2.47881,-2.66636 4.25,-3.57379 1.7712,-0.90744 3.53136,-2.13328 3.91148,-2.7241 0.47215,-0.73387 1.57007,-0.76511 3.46529,-0.0986 3.84632,1.35267 5.4427,7.57988 2.71565,10.59324 -1.01733,1.12414 -2.52972,2.39297 -3.36087,2.81963 -2.82293,1.44912 -8.5043,1.97922 -10.26119,0.95742 z m 28.81429,-0.21155 c 0.37553,-0.98622 0.93469,-1.54122 1.24258,-1.23333 0.30789,0.30789 6.4e-4,1.11479 -0.68278,1.79313 -0.98762,0.98026 -1.10248,0.8654 -0.5598,-0.5598 z m 3.01866,-0.57266 c -0.43077,-0.697 -0.51316,-1.53733 -0.18309,-1.86741 0.89497,-0.89496 1.87077,0.4213 1.38739,1.87145 -0.33872,1.01617 -0.57427,1.01538 -1.2043,-0.004 z m 22.92713,-1.1179 c -0.34546,-0.55897 0.0734,-1.01631 0.9309,-1.01631 1.75653,0 2.01516,0.60006 0.62812,1.45729 -0.512,0.31644 -1.21356,0.11799 -1.55902,-0.44098 z m -33.31035,-3.82005 c -4.07447,-0.408 -5.42087,-3.28996 -4.38147,-9.37852 0.61737,-3.61646 1.34859,-4.63473 4.70634,-6.55386 5.09674,-2.91305 7.37087,-2.56091 10.14895,1.57155 4.89606,7.28299 -0.9608,15.31344 -10.47382,14.36083 z m 21.63611,-2.97052 c -2.37151,-0.30445 -2.73957,-0.89033 -3.35069,-5.33369 -1.12603,-8.18727 2.17257,-12.89205 9.03885,-12.89205 3.17155,0 5.93055,4.21599 5.93055,9.06241 0,3.9133 -2.21798,9.20183 -3.52135,8.39631 -0.42095,-0.26017 -1.81563,-0.11706 -3.09928,0.31801 -1.28366,0.43506 -3.53279,0.63712 -4.99808,0.44901 z m 17.56386,-5.99105 c -1.97862,-1.32117 -3.5997,-5.40581 -3.5997,-9.0702 0,-6.97312 9.31903,-10.86004 14.02569,-5.85004 5.04112,5.36604 0.40968,15.7193 -7.00995,15.67024 -1.27366,-0.008 -2.81087,-0.34592 -3.41604,-0.75 z m 180.17083,-94.80702 c -1.04693,-1.04693 -1.35622,-2.43338 -0.92559,-4.14915 0.45309,-1.80526 0.30365,-2.36478 -0.4991,-1.86866 -1.57071,0.97076 -1.52183,-4.63387 0.0542,-6.20986 2.11782,-2.11782 6.74941,-1.46327 7.72058,1.0911 0.47909,1.2601 1.57353,2.87409 2.4321,3.58663 1.39547,1.15814 1.28636,1.71059 -1.02871,5.20891 -2.75486,4.16288 -5.19487,4.8996 -7.75344,2.34103 z m 4.42947,-1.42767 c 0,-0.55 -0.45,-1 -1,-1 -0.55,0 -1,0.45 -1,1 0,0.55 0.45,1 1,1 0.55,0 1,-0.45 1,-1 z m 3.2188,-10.627 c -0.11846,-1.43125 0.21523,-2.22279 0.78786,-1.86888 1.18571,0.73281 1.31575,3.17858 0.20548,3.86477 -0.43332,0.26781 -0.88033,-0.63034 -0.99334,-1.99589 z m -19.96924,-2.25748 c -2.97698,-2.72122 -4.24956,-4.68741 -4.24956,-6.56574 0,-8.16144 9.57125,-14.3401 15.63485,-10.09299 1.77227,1.24134 2.01621,2.23964 1.64948,6.75 -0.58937,7.24836 -2.0608,10.62626 -5.37552,12.34037 -1.54522,0.79906 -2.94454,1.45284 -3.10959,1.45284 -0.16506,0 -2.21241,-1.74801 -4.54966,-3.88448 z m -14.57163,-22.68059 c -1.67847,-2.30504 -1.72762,-3.87524 -0.29357,-9.3787 0.0636,-0.24408 2.25758,-2.44731 4.8755,-4.89607 4.70983,-4.4055 4.78175,-4.43248 6.84262,-2.56741 3.32532,3.00937 4.13443,5.34175 3.44589,9.93328 -0.86356,5.7586 -4.58658,9.48471 -9.43473,9.44254 -2.68138,-0.0233 -4.0837,-0.67695 -5.43571,-2.53364 z m -35.4715,-2.94168 c -11.86314,-2.74862 -14.31471,-11.49347 -6.42344,-22.91264 3.22544,-4.66744 10.54016,-9.58061 14.26357,-9.58061 4.97904,0 8.56944,1.97204 10.79281,5.92798 1.18835,2.11438 2.17824,4.90806 2.19977,6.20817 0.0361,2.17766 0.14214,2.12752 1.34677,-0.63654 2.67245,-6.13198 7.85051,-7.92065 12.17106,-4.20426 2.74895,2.36454 2.79865,2.57433 1.57635,6.654 -1.81701,6.06464 -5.86839,10.32326 -9.09735,9.5627 -1.39478,-0.32853 -3.2874,-1.48346 -4.20582,-2.5665 -1.62251,-1.91333 -1.7582,-1.81475 -4.78578,3.4769 -2.45856,4.29712 -3.8995,5.69839 -6.83014,6.64213 -2.04283,0.65784 -4.16423,1.52436 -4.71423,1.92562 -0.55,0.40125 -3.38211,0.17762 -6.29357,-0.49695 z"
         style="fill:#9e9e9e" />
      <path
         inkscape:connector-curvature="0"
         id="path3780"
         d="m 247.1592,673.70692 c -0.28382,-0.73961 -0.24103,-2.06138 0.0951,-2.93728 0.39621,-1.03252 -0.0292,-1.75998 -1.20974,-2.0687 -1.34142,-0.35079 -1.71503,-1.19713 -1.41897,-3.21435 0.24743,-1.68586 -0.20616,-3.2428 -1.18026,-4.05124 -1.40481,-1.16588 -1.13415,-1.74783 2.41484,-5.192 2.19835,-2.13342 3.99699,-4.70722 3.99699,-5.71954 0,-1.01233 1.125,-2.35318 2.5,-2.97968 2.33369,-1.0633 3.01597,-2.69685 2.5402,-6.08196 -0.10823,-0.77001 1.07596,-2.42402 2.63151,-3.67559 2.79777,-2.25101 2.80485,-2.28446 0.65564,-3.09998 -1.77198,-0.67238 -1.9564,-1.11248 -1,-2.38639 0.64496,-0.85909 2.07265,-1.92398 3.17265,-2.36643 1.27697,-0.51363 1.54811,-0.97324 0.75,-1.27136 -1.75792,-0.65663 -1.55412,-2.19869 0.54713,-4.13995 0.98842,-0.91316 1.26839,-1.31331 0.62214,-0.88921 -0.73511,0.48241 -1.37285,0.0145 -1.70351,-1.25 -0.29069,-1.1116 -0.12065,-2.02108 0.37786,-2.02108 1.56978,0 4.90705,-3.92333 4.89107,-5.75 -0.0114,-1.30179 -0.22609,-1.41773 -0.83827,-0.45267 -0.65801,1.03729 -1.0784,0.98956 -2.09732,-0.23816 -1.42284,-1.71443 -1.4552,-1.69349 5.35705,-3.46716 4.46547,-1.16265 6.23217,-0.56607 4.50097,1.51991 -0.97099,1.16997 -0.87421,1.31268 0.52583,0.77544 1.201,-0.46087 1.5436,-1.34464 1.14183,-2.94542 -0.45985,-1.83218 0.37056,-3.09781 4.17561,-6.36409 2.61229,-2.2424 5.33548,-3.85742 6.05155,-3.58892 0.71606,0.26849 1.04928,0.0794 0.74047,-0.42031 -0.30881,-0.49966 0.60554,-1.82644 2.03189,-2.9484 1.42634,-1.12197 2.30726,-2.50285 1.95759,-3.06862 -0.37645,-0.60911 -0.0102,-0.78865 0.89786,-0.44018 1.61407,0.61937 1.41836,1.19391 -2.17631,6.38858 -1.69509,2.44958 -1.68988,2.4701 0.25829,1.01723 1.90072,-1.41748 1.91791,-1.39546 0.39037,0.5 -2.72813,3.38524 -3.15383,4.5166 -1.45404,3.86433 3.25536,-1.2492 1.31588,2.05741 -5.11212,8.71567 -7.62589,7.89905 -7.08456,9.45016 0.66406,1.90277 2.82332,-2.75 5.66581,-4.96447 6.31666,-4.92105 0.83429,0.0557 0.8128,0.22833 -0.0729,0.58541 -0.69092,0.27855 -1.01134,0.90269 -0.71204,1.38698 0.29931,0.48428 -1.04232,1.90834 -2.98139,3.16459 -3.63854,2.35725 -4.47893,3.75433 -2.30033,3.82411 0.6875,0.022 0.0182,0.70839 -1.4873,1.52528 -1.50551,0.81688 -3.01977,2.61073 -3.36503,3.98634 -0.34525,1.3756 -1.47597,2.95506 -2.5127,3.5099 -1.12268,0.60084 -1.89536,2.1067 -1.91065,3.72362 -0.0141,1.49315 -0.87719,6.48039 -1.91794,11.08276 -2.12203,9.38402 -1.37165,9.74583 1.37703,0.66396 0.99346,-3.28245 2.38318,-6.88245 3.08827,-8 0.7051,-1.11754 1.5936,-3.52481 1.97445,-5.34947 0.38085,-1.82466 1.32502,-3.56031 2.09816,-3.85699 0.77314,-0.29668 1.40571,-1.11813 1.40571,-1.82544 0,-0.70731 0.69837,-1.55401 1.55194,-1.88156 0.85356,-0.32754 1.29154,-0.17421 0.97329,0.34074 -0.75469,1.2211 3.51879,0.3968 4.85136,-0.93577 1.3159,-1.3159 2.93323,-1.33373 2.12341,-0.0234 -0.33992,0.55 0.19602,1.00689 1.19098,1.01531 1.40285,0.0119 1.50295,0.20923 0.44587,0.87895 -1.07773,0.6828 -1.09513,0.95298 -0.0831,1.29031 0.72633,0.24212 1.25507,1.91658 1.22233,3.87105 -0.13813,8.24679 -0.17185,11.80542 -0.16528,17.44438 0.011,9.46492 -0.88128,12.38773 -4.92704,16.13878 -6.09396,5.65005 -13.57541,8.36082 -27.42241,9.93602 -3.15628,0.35905 -5.5621,0.9391 -5.34629,1.28901 0.21582,0.3499 -1.63021,0.67882 -4.10228,0.73093 -2.91401,0.0614 -4.67615,-0.37818 -5.01071,-1.25 z m 2.04303,-6.88787 c -0.32569,-0.84872 -0.80663,-1.32866 -1.06875,-1.06653 -0.26213,0.26213 -0.17998,0.95654 0.18255,1.54313 0.98605,1.59546 1.56238,1.28551 0.8862,-0.4766 z m 20.07147,-9.1 c 0.9187,-2.39409 0.20261,-2.57794 -1.21288,-0.31139 -0.67134,1.07499 -0.81495,1.95452 -0.31913,1.95452 0.49581,0 1.18522,-0.73941 1.53201,-1.64313 z m 7.3504,-43.85687 c 2.54643,-2.475 5.01714,-4.5 5.49048,-4.5 0.47333,0 0.59263,-0.43359 0.26511,-0.96353 -0.3398,-0.5498 -1.34264,-0.22776 -2.33555,0.75 -0.95703,0.94244 -3.09787,2.84394 -4.75743,4.22555 -1.65955,1.38161 -3.36167,3.06911 -3.78248,3.75 -1.54123,2.49376 0.60464,1.12657 5.11987,-3.26202 z m 3.72597,-7.48855 c 0.35034,-0.56686 -0.0511,-0.7345 -0.94098,-0.39301 -1.73242,0.66479 -2.04939,1.38156 -0.61096,1.38156 0.51754,0 1.21592,-0.44485 1.55194,-0.98855 z m 3.50708,-3.01145 c 0,-0.55 -0.45,-1 -1,-1 -0.55,0 -1,0.45 -1,1 0,0.55 0.45,1 1,1 0.55,0 1,-0.45 1,-1 z m 3.981,62.52289 c 1.44013,-1.73524 2.019,-1.91584 2.019,-0.62988 0,0.49116 -0.73865,1.17646 -1.64144,1.52289 -1.37248,0.52667 -1.43434,0.38034 -0.37756,-0.89301 z m -40.981,-20.52289 c 0,-1.1 0.40787,-2 0.90638,-2 0.49851,0 0.67102,0.9 0.38337,2 -0.28766,1.1 -0.69553,2 -0.90638,2 -0.21085,0 -0.38337,-0.9 -0.38337,-2 z m 39,-24.55902 c 0,-0.85746 0.45,-1.2809 1,-0.94098 0.55,0.33992 1,1.04148 1,1.55902 0,0.51754 -0.45,0.94098 -1,0.94098 -0.55,0 -1,-0.70156 -1,-1.55902 z m -14,-13.94098 c 2.84231,-3.0255 1.29461,-3.35477 -1.87755,-0.39945 -1.24008,1.1553 -2.52962,1.82561 -2.86566,1.48957 -0.95555,-0.95555 4.4969,-6.17983 13.24321,-12.68903 4.4,-3.27457 9.35,-7.20039 11,-8.72402 5.78262,-5.33976 7.17442,-5.91756 4.03974,-1.67707 -1.6263,2.2 -3.31585,4.15093 -3.75455,4.33541 -0.43871,0.18448 -0.5364,0.75813 -0.21709,1.27478 0.31931,0.51665 0.20961,0.82672 -0.24377,0.68904 -0.45338,-0.13768 -3.25707,2.10117 -6.23042,4.97522 -5.11989,4.94891 -8.92636,7.19598 -5.96636,3.52212 1.08098,-1.34167 0.7951,-1.28858 -1.34613,0.25 -2.70242,1.94182 -3.91995,4.21741 -1.53142,2.86227 0.6875,-0.39006 -0.30078,0.93339 -2.19617,2.94098 -1.89539,2.0076 -3.66133,3.65018 -3.92431,3.65018 -0.26298,0 0.57873,-1.125 1.87048,-2.5 z m -4.47943,-6.89105 c 0.81754,-1.24773 1.19546,-2.55959 0.83981,-2.91524 -0.35565,-0.35565 0.0928,-0.93037 0.99649,-1.27716 0.90372,-0.34679 1.64313,-1.08053 1.64313,-1.63053 0,-0.55 -0.77691,-0.70187 -1.72647,-0.33749 -1.33097,0.51074 -1.21643,0.11959 0.5,-1.70746 2.93569,-3.1249 3.01606,-5.23402 0.14082,-3.69523 -2.90686,1.5557 -3.29418,0.69813 -0.92069,-2.03853 2.51795,-2.90322 2.5168,-3.37406 -0.007,-2.71417 -1.8825,0.49229 -1.85973,0.34429 0.35125,-2.28332 1.30032,-1.54535 4.02128,-4.26463 6.04656,-6.04285 3.87501,-3.40231 4.22287,-4.89776 0.7008,-3.01281 -3.03696,1.62534 -2.62195,-0.33657 0.81493,-3.85244 2.95573,-3.02367 3.11627,-4.42915 0.38626,-3.38155 -1.17529,0.45101 -1.36361,0.0971 -0.83484,-1.5689 0.3755,-1.1832 0.25507,-2.15127 -0.26767,-2.15127 -0.5251,0 -0.31698,-1.83857 0.46506,-4.10845 0.94066,-2.73029 1.0862,-4.50519 0.43387,-5.2912 -0.68184,-0.82157 -0.34151,-1.5825 1.11444,-2.49176 1.47351,-0.92022 1.74051,-1.52873 0.89897,-2.04883 -0.91497,-0.56548 -0.84447,-1.76326 0.29914,-5.08262 0.82292,-2.38854 1.26895,-4.71052 0.99118,-5.15997 -0.27778,-0.44944 -0.18118,-1.34119 0.21465,-1.98165 0.39583,-0.64047 0.89242,-2.55297 1.10353,-4.25 0.42637,-3.42728 1.02131,-6.82077 1.3299,-7.58552 0.11096,-0.275 0.13449,-0.87941 0.0523,-1.34314 -0.27311,-1.54055 2.29944,-7.65686 3.2205,-7.65686 0.49835,0 0.66386,-0.63126 0.36779,-1.4028 -0.67352,-1.75517 0.43415,-3.0896 7.34344,-8.84681 4.88107,-4.06717 6.26736,-4.68349 11.99138,-5.33109 3.66457,-0.4146 8.42812,-1.77592 10.98088,-3.1381 3.82968,-2.04356 5.47277,-2.33058 10.91102,-1.90597 3.52132,0.27494 6.74542,1.05491 7.16466,1.73326 0.58511,0.94672 1.35494,0.84503 3.31242,-0.43756 4.59635,-3.01164 10.74307,-1.54069 14.36303,3.43717 0.77189,1.06144 2.0222,1.50469 3.30105,1.17026 1.1322,-0.29608 3.49807,0.14532 5.2575,0.98089 1.75942,0.83557 4.88645,2.23678 6.94895,3.1138 2.0625,0.87703 3.75,2.05187 3.75,2.61077 0,0.5589 0.42682,1.01618 0.94848,1.01618 1.34672,0 5.57864,4.16879 6.34465,6.25 0.35425,0.9625 0.20441,1.75 -0.33299,1.75 -0.5646,0 -0.47906,0.79747 0.20264,1.88904 0.99798,1.59802 0.74882,2.28839 -1.61734,4.48126 -1.53838,1.42573 -3.26691,2.30184 -3.84119,1.94692 -0.64414,-0.39811 -0.79951,-0.008 -0.40557,1.01874 0.39289,1.02385 0.14061,1.66404 -0.65575,1.66404 -1.65469,0 -5.64293,4.21267 -5.64293,5.96047 0,0.75142 1.06843,0.17872 2.45225,-1.31445 3.51097,-3.78839 4.12222,-3.26575 0.98738,0.84424 -1.46418,1.91964 -3.03129,3.26211 -3.48247,2.98327 -0.45117,-0.27885 -1.5047,0.47011 -2.34118,1.66435 -1.14246,1.63108 -1.25906,2.66051 -0.46865,4.1374 0.7563,1.41317 0.74292,1.77493 -0.0476,1.28638 -0.62361,-0.38541 -1.09977,0.009 -1.09977,0.91071 0,0.87472 -0.67242,1.84843 -1.49426,2.1638 -0.82184,0.31537 -1.28245,0.91611 -1.02358,1.33497 1.0614,1.71737 -3.37765,3.93305 -9.48216,4.73288 -7.55272,0.98957 -11.16507,0.48516 -13.99355,-1.95402 -1.11612,-0.9625 -2.64932,-1.75 -3.4071,-1.75 -0.75778,0 -2.44013,-0.88503 -3.73857,-1.96673 -1.98049,-1.64991 -2.07888,-1.97209 -0.61078,-2 0.9625,-0.0183 1.75,-0.51359 1.75,-1.10066 0,-1.31078 -4.19301,-0.14287 -5.21353,1.45217 -0.39243,0.61337 -0.84243,0.95051 -1,0.74919 -0.15756,-0.20132 -1.92156,0.0854 -3.92001,0.63723 -3.72514,1.02856 -9.86646,6.51213 -9.86646,8.80973 0,0.70636 -0.94537,1.58434 -2.10083,1.95107 -1.26427,0.40127 -3.08536,2.8173 -4.5733,6.06739 -1.35983,2.97033 -2.69101,5.40061 -2.95815,5.40061 -0.26715,0 -0.17152,-0.50838 0.2125,-1.12973 0.40764,-0.65957 0.17278,-0.95459 -0.56434,-0.70888 -0.6944,0.23146 -2.26912,2.30276 -3.49938,4.60287 -1.23026,2.30011 -2.5969,3.85661 -3.03698,3.45888 -0.44007,-0.39773 -0.48963,-0.18201 -0.11014,0.47938 0.41625,0.72542 -0.41283,1.80059 -2.08967,2.70996 -2.53531,1.37493 -2.58801,1.51096 -0.59948,1.54748 1.97983,0.0364 2.09501,0.33872 1.25323,3.29004 -0.50984,1.7875 -1.94092,3.99614 -3.1802,4.9081 -1.23927,0.91195 -3.33457,2.59945 -4.65623,3.75 -1.32166,1.15054 -3.00916,2.0919 -3.75,2.0919 -0.74084,0 -1.34699,0.34015 -1.34699,0.75589 0,0.41574 -1.34178,1.34982 -2.98173,2.07573 -1.63995,0.72591 -3.55398,2.5138 -4.2534,3.97309 -0.86128,1.797 -2.15253,2.72095 -4.00121,2.86304 -2.6176,0.2012 -2.66858,0.11677 -1.24309,-2.0588 z m 10.87331,-10.72484 c -0.5836,-1.03839 -5.25925,0.24874 -6.54904,1.80284 -0.96341,1.16084 -0.93137,1.64154 0.15411,2.3124 1.37961,0.85265 7.1133,-2.83708 6.39493,-4.11524 z m 4.98281,-2.5216 1.87668,-2.57463 -2.62668,1.72107 c -1.44468,0.94659 -2.62669,2.11932 -2.62669,2.60606 0,1.61962 1.47775,0.85267 3.37669,-1.7525 z m 2.03986,-60.00564 c 0.9187,-2.39409 0.20261,-2.57794 -1.21288,-0.31139 -0.67134,1.07499 -0.81495,1.95452 -0.31913,1.95452 0.49581,0 1.18522,-0.73941 1.53201,-1.64313 z m 24.1973,-13.60687 c 0.91587,-1.7875 2.16493,-3.58061 2.77568,-3.98469 0.77312,-0.51149 0.72627,-0.73934 -0.15423,-0.75 -1.18156,-0.0143 -5.22329,5.57497 -5.23156,7.23469 -0.008,1.59452 1.01345,0.61621 2.61011,-2.5 z m 15.38615,-4.30902 c 0,-0.24254 -0.45,-0.44098 -1,-0.44098 -0.55,0 -1,0.47656 -1,1.05902 0,0.58246 0.45,0.7809 1,0.44098 0.55,-0.33992 1,-0.81648 1,-1.05902 z m -30.97776,72.92333 c -0.0401,-2.04596 4.95073,-10.36431 6.21831,-10.36431 1.74289,0 0.64133,4.21813 -1.2293,4.70731 -1.09382,0.28604 -1.80401,0.81899 -1.57822,1.18434 0.2258,0.36535 -0.44425,1.77669 -1.48901,3.13631 -1.04475,1.35962 -1.90955,1.96098 -1.92178,1.33635 z m 6.97776,-11.42333 c 0,-0.58246 -0.51953,-0.73793 -1.15451,-0.34549 -0.6991,0.43207 -0.8837,0.27535 -0.46797,-0.39731 0.37759,-0.61096 1.28905,-0.87962 2.02546,-0.59704 0.73642,0.28259 1.60788,-0.18706 1.93659,-1.04367 0.32871,-0.85661 1.08279,-1.55747 1.67573,-1.55747 0.59294,0 0.26956,1.11086 -0.71862,2.46858 -1.89998,2.6105 -3.29668,3.23431 -3.29668,1.4724 z m 146.66994,-23.10009 c -2.83002,-6.53234 -3.20947,-12.996 -1.14774,-19.55078 1.5928,-5.06393 4.89488,-11.88264 6.43596,-13.29011 0.30111,-0.275 1.84998,-2.41984 3.44195,-4.7663 5.86341,-8.64232 12.59989,-14.03086 12.59989,-10.07871 0,0.64285 0.962,0.3103 2.16957,-0.75 1.90526,-1.67292 2.09331,-1.6957 1.54367,-0.18702 -0.34424,0.94489 -0.24671,1.95233 0.21674,2.23876 0.46345,0.28643 1.11266,-0.48666 1.44268,-1.71798 0.88884,-3.31631 0.76366,-3.9394 -0.62266,-3.09924 -0.6875,0.41665 0.1,-0.83679 1.75,-2.78542 1.65,-1.94863 3.16607,-3.40939 3.36905,-3.24614 0.85683,0.68913 3.19863,-2.68942 2.5696,-3.70721 -0.48151,-0.7791 0.25182,-0.908 2.43624,-0.42822 2.7869,0.61211 3.12511,0.4397 3.12511,-1.59306 0,-1.77291 -0.26667,-2.01279 -1.2,-1.07946 -3.17921,3.17921 -2.89608,-1.46803 0.34528,-5.66746 1.56474,-2.02723 1.91722,-2.13325 2.45273,-0.73773 0.34396,0.89636 0.42796,2.97491 0.18665,4.61901 -0.30026,2.04581 0.13985,3.51287 1.39444,4.64826 2.61314,2.36486 3.24899,1.06644 1.31204,-2.67921 -0.91098,-1.76165 -1.16916,-2.90191 -0.57374,-2.53392 1.54806,0.95676 1.33597,-0.64221 -0.41719,-3.14519 -0.83577,-1.19322 -1.20328,-2.91398 -0.83007,-3.88655 0.45658,-1.18982 0.29738,-1.51517 -0.5002,-1.02224 -1.31505,0.81274 -1.50498,-0.35828 -0.48798,-3.00855 0.51554,-1.34348 1.10268,-0.57036 2.40606,3.16821 l 1.72411,4.94537 -0.3936,-6.2126 c -0.21648,-3.41693 -0.4525,-6.56693 -0.52448,-7 -0.42036,-2.52878 0.25831,-4.44291 1.41754,-3.99807 0.94949,0.36435 1.19386,-0.29884 0.88516,-2.40217 -0.23454,-1.59801 0.18774,-3.64534 0.93841,-4.54962 0.75066,-0.90428 1.39851,-3.93766 1.43966,-6.74084 0.0412,-2.80319 0.66514,-7.36719 1.38665,-10.14224 0.9098,-3.49925 1.08543,-7.46155 0.57308,-12.92902 -0.64356,-6.86775 -1.11491,-8.25965 -3.65837,-10.80311 -1.69285,-1.69284 -3.54078,-2.68127 -4.39791,-2.35237 -0.90679,0.34797 -1.47827,-0.0233 -1.47827,-0.96036 0,-0.91171 -0.47171,-1.2361 -1.16994,-0.80457 -0.78665,0.48618 -0.96074,0.1779 -0.53138,-0.94099 0.3512,-0.91522 0.20267,-1.66404 -0.33006,-1.66404 -0.53274,0 -0.96862,0.39893 -0.96862,0.8865 0,1.26938 -6.27912,2.05643 -7.64797,0.95863 -0.63139,-0.50637 -2.1764,-1.11872 -3.43336,-1.36079 -2.84257,-0.54743 -7.21148,-5.2475 -10.3392,-11.1229 -2.00136,-3.75956 -2.29383,-5.41993 -1.83874,-10.43875 0.47583,-5.24753 0.34304,-5.89207 -1.09978,-5.3384 -2.32442,0.89196 -2.16731,-4.86587 0.27517,-10.08429 2.2082,-4.71789 4.90306,-7.49283 11.22646,-11.56005 4.33544,-2.78856 5.09625,-2.94736 11.5,-2.40031 3.77158,0.3222 7.75742,1.14761 8.85742,1.83425 1.1,0.68665 4.64994,1.32725 7.88876,1.42357 4.33145,0.12882 7.10822,0.87942 10.5,2.83829 5.47842,3.164 17.8694,14.97324 18.72305,17.84404 0.3304,1.11112 2.67349,4.15771 5.20686,6.77021 4.33851,4.47401 4.46307,4.75089 2.14374,4.76531 -1.35433,0.008 -3.13741,0.45153 -3.96241,0.98469 -1.17253,0.75775 -0.91049,0.97272 1.20031,0.98469 1.504,0.009 3.15188,0.79061 3.71959,1.76531 0.97075,1.66667 1.02073,1.66667 1.04969,0 0.0167,-0.9625 0.48041,-1.75 1.03041,-1.75 1.58972,0 1.15832,4.00202 -0.5,4.63837 -0.825,0.31659 -1.5,1.00402 -1.5,1.52764 0,0.52361 0.45,0.67391 1,0.33399 0.59057,-0.36499 0.99441,0.73678 0.98635,2.69098 -0.0201,4.86642 -1.02634,7.80902 -2.67037,7.80902 -1.00701,0 -1.25194,0.62642 -0.80075,2.04799 0.3575,1.12639 0.22782,2.58889 -0.28818,3.25 -0.516,0.6611 -1.17902,2.18762 -1.47337,3.39226 -0.87045,3.5623 2.40486,0.8586 5.52357,-4.55959 2.28653,-3.97244 2.66809,-4.2753 2.68431,-2.13066 0.0104,1.375 -1.0803,4.86099 -2.42377,7.74664 -1.98741,4.26879 -2.86324,5.20067 -4.69924,5 -3.35194,-0.36636 -3.70797,2.99705 -0.40499,3.82604 2.84905,0.71507 3.38875,2.86775 1.04747,4.178 -0.83544,0.46753 -1.72229,1.90581 -1.9708,3.19618 -1.4512,7.53551 -10.89203,26.7962 -15.22102,31.05314 -2.51703,2.47514 -2.53701,2.47763 -2.00938,0.25 0.29311,-1.2375 0.12506,-2.25 -0.37345,-2.25 -0.49851,0 -0.95668,0.5625 -1.01816,1.25 -0.50518,5.6491 -1.0336,8.22025 -1.90528,9.27056 -0.5596,0.67427 -0.71298,2.07048 -0.34086,3.10269 0.37212,1.03221 0.38357,1.61793 0.0254,1.30161 -0.35813,-0.31633 -1.28169,-2.34133 -2.05237,-4.5 -1.39789,-3.91551 -1.40117,-3.90461 -1.3793,4.57514 0.0266,10.32354 -1.58382,17.18744 -3.83034,16.32537 -1.09129,-0.41877 -1.22902,-0.90186 -0.47273,-1.65815 1.75197,-1.75197 1.22427,-2.4199 -1.50035,-1.89906 -2.33087,0.44558 -2.54347,0.88263 -2.30619,4.74108 0.15087,2.45338 -0.36458,5.25232 -1.21923,6.62051 -0.81433,1.30364 -2.08138,3.72025 -2.81568,5.37025 -1.21717,2.73507 -1.39933,2.8237 -2.06271,1.00362 -0.55328,-1.51799 -0.8982,-0.85902 -1.4394,2.75 -0.46974,3.13269 -1.20087,4.74638 -2.15045,4.74638 -0.7913,0 -1.43873,0.70156 -1.43873,1.55902 0,0.91337 0.47265,1.2669 1.14129,0.85366 0.82063,-0.50718 1.00327,0.73108 0.65003,4.40727 -0.27019,2.81195 -0.10877,4.87625 0.35871,4.58733 1.147,-0.70889 1.05445,2.72084 -0.1237,4.58436 -0.72422,1.14551 -1.21667,1.21802 -2.12219,0.3125 -0.8843,-0.8843 -0.90579,-2.25606 -0.086,-5.48596 0.695,-2.73807 0.74508,-4.65492 0.1375,-5.2625 -0.60757,-0.60757 -1.00121,0.0278 -1.08068,1.74432 -0.22281,4.81261 -0.35498,5.2 -1.77422,5.2 -0.76957,0 -1.79131,0.9 -2.27052,2 -0.79753,1.83063 -0.83518,1.80955 -0.44467,-0.249 0.52086,-2.7456 -1.17576,-4.09645 -1.9648,-1.56438 -0.97126,3.11679 -2.10413,4.8231 -3.02978,4.56338 -0.49005,-0.1375 -0.89101,-0.76346 -0.89101,-1.39101 0,-0.62756 -0.75516,-1.61736 -1.67812,-2.19955 -1.32593,-0.83637 -2.10599,-0.54443 -3.71673,1.39101 -1.12124,1.34725 -2.06136,2.89955 -2.08916,3.44955 -0.0278,0.55 -1.16777,2.05973 -2.53327,3.35496 -1.36549,1.29523 -2.48272,2.7436 -2.48272,3.21862 0,0.47501 -0.65616,0.61186 -1.45813,0.30411 -0.97254,-0.3732 -1.67468,0.30329 -2.10841,2.03139 -0.626,2.4942 -3.15626,3.31838 -8.18346,2.66557 -0.6875,-0.0893 -1.25,0.35555 -1.25,0.9885 0,0.63296 -0.675,0.89181 -1.5,0.57522 -0.825,-0.31658 -1.5,-0.13972 -1.5,0.39301 0,2.52837 -2.72108,0.52341 -4.33006,-3.19049 z m 34.33006,-22.39991 c 0,-0.24254 -0.45,-0.44098 -1,-0.44098 -0.55,0 -1,0.47656 -1,1.05902 0,0.58246 0.45,0.7809 1,0.44098 0.55,-0.33992 1,-0.81648 1,-1.05902 z m -7.39583,-21.17015 c -0.33229,-0.33229 -0.56864,0.25834 -0.52522,1.3125 0.048,1.16495 0.28494,1.4019 0.60416,0.60417 0.28887,-0.72188 0.25335,-1.58438 -0.0789,-1.91667 z m 27.39583,-8.32985 c 0,-0.58246 -0.45,-0.7809 -1,-0.44098 -0.55,0.33992 -1,0.81648 -1,1.05902 0,0.24254 0.45,0.44098 1,0.44098 0.55,0 1,-0.47656 1,-1.05902 z m -13.39583,-6.67015 c -0.33229,-0.33229 -0.56864,0.25834 -0.52522,1.3125 0.048,1.16495 0.28494,1.4019 0.60416,0.60417 0.28887,-0.72188 0.25335,-1.58438 -0.0789,-1.91667 z m 17.39583,0.17015 c 0,-0.85746 -0.45,-1.2809 -1,-0.94098 -0.55,0.33992 -1,1.04148 -1,1.55902 0,0.51754 0.45,0.94098 1,0.94098 0.55,0 1,-0.70156 1,-1.55902 z m 2.80687,-61.96744 c -0.30789,-0.30789 -0.86705,0.24711 -1.24258,1.23333 -0.54268,1.4252 -0.42782,1.54006 0.5598,0.5598 0.68342,-0.67834 0.99067,-1.48524 0.68278,-1.79313 z m 21.39407,-21.97354 1.96591,-4 -3.08342,3.26578 c -2.1923,2.32194 -3.06387,4.20048 -3.01575,6.5 0.0668,3.19222 0.0813,3.20175 1.11752,0.73422 0.57741,-1.375 1.93449,-4.3 3.01574,-6.5 z m -5.93985,-7.06176 c -1.92185,-1.417 -2.82118,-0.3402 -1.84359,2.20737 0.49234,1.28301 0.8877,1.34599 2.10542,0.33537 1.32159,-1.09682 1.29056,-1.39815 -0.26183,-2.54274 z M 474.0811,541.36218 c 0.10976,-3.04525 2.2024,-9 3.1628,-9 0.44943,0 -1.42297,7.98305 -2.46274,10.5 -0.64251,1.55529 -0.79817,1.22176 -0.70006,-1.5 z m 20.05243,-3.08975 c 0.67299,-1.87564 1.86202,-4.08079 2.64229,-4.90035 1.23634,-1.29858 1.32753,-1.12698 0.70956,1.33523 -0.39001,1.55392 -1.57904,3.75908 -2.64229,4.90034 -1.92747,2.06889 -1.92957,2.06494 -0.70956,-1.33522 z m 2.72362,-19.32846 c 0,-0.78002 -0.27314,-2.13002 -0.60699,-3 -0.33384,-0.86999 -0.20456,-1.58179 0.28729,-1.58179 0.49186,0 0.99715,1.35 1.12288,3 0.12572,1.65 -0.004,3 -0.2873,3 -0.28373,0 -0.51588,-0.6382 -0.51588,-1.41821 z M 384.40098,497.78873 c -0.93755,-1.43088 -2.13843,-2.13561 -3.04582,-1.78741 -1.737,0.66654 -2.04512,-1.18297 -0.36959,-2.21851 0.77149,-0.47681 0.61334,-0.98564 -0.5,-1.6087 -0.89563,-0.50122 -1.62842,-1.98739 -1.62842,-3.3026 0,-1.31521 -0.44311,-2.66516 -0.9847,-2.99987 -1.22461,-0.75686 -1.12438,-4.57075 0.28277,-10.75946 0.85755,-3.77152 1.50458,-4.75315 3.14098,-4.76531 1.69704,-0.0126 1.79609,-0.18648 0.56095,-0.98469 -1.259,-0.81363 -1.19638,-0.97183 0.38976,-0.98469 1.03936,-0.008 2.40141,-0.71504 3.02677,-1.57028 1.36387,-1.8652 8.34641,-3.63762 9.15789,-2.32461 0.31008,0.50171 0.89825,0.70548 1.30706,0.45283 1.05507,-0.65207 6.27612,2.93582 5.45991,3.75202 -0.3711,0.3711 -0.20315,0.67473 0.37323,0.67473 2.30486,0 4.19681,13.25368 2.39298,16.76357 -0.49082,0.95504 -1.38273,2.97735 -1.98203,4.49404 -0.65978,1.66975 -2.57606,3.42938 -4.8576,4.46048 -2.07238,0.93658 -4.44297,2.2197 -5.26797,2.85137 -3.1008,2.37414 -5.84135,2.32162 -7.45617,-0.14291 z m 1.45617,-20.54458 c 0,-0.55 -0.45,-0.72189 -1,-0.38197 -0.55,0.33992 -1,1.06803 -1,1.61803 0,0.55 0.45,0.72189 1,0.38197 0.55,-0.33992 1,-1.06803 1,-1.61803 z m -84.80782,11.36803 c -1.54118,-3.07118 0.23395,-6.53158 5.11021,-9.9617 3.87405,-2.72514 5.10323,-3.14159 6.71949,-2.27659 1.08797,0.58226 2.03555,1.60532 2.10574,2.27347 0.0702,0.66815 0.2332,2.21571 0.36223,3.43901 0.34646,3.28468 -2.06219,6.06293 -6.26933,7.23137 -5.24748,1.45736 -7.02116,1.30148 -8.02834,-0.70556 z m 19.55782,-5.32873 c -2.10023,-1.22491 -2.43698,-8.68999 -0.5,-11.08384 2.05309,-2.53733 6.04708,-4.83743 8.39993,-4.83743 2.65904,0 6.35007,4.39028 6.35007,7.55307 0,3.85427 -1.0902,5.4523 -5.12333,7.50985 l -3.87667,1.97773 0,-2.13111 0,-2.13111 -1.75,2.08175 c -1.35321,1.60973 -2.14679,1.85032 -3.5,1.06109 z m 22.28635,-3.37747 c -0.66469,-0.8009 -0.91823,-1.9259 -0.56342,-2.5 0.35481,-0.57409 0.15795,-1.0438 -0.43747,-1.0438 -1.33881,0 -0.80914,-5.68586 0.81183,-8.71465 0.65022,-1.21495 2.84801,-2.66949 4.91448,-3.2525 3.42246,-0.96556 3.92829,-0.83785 5.98823,1.51201 1.33987,1.52844 2.24404,3.85875 2.23526,5.7609 -0.0175,3.80328 -2.17592,8.29543 -3.81701,7.94424 -0.64254,-0.1375 -1.16825,0.2 -1.16825,0.75 0,1.55487 -6.60881,1.17629 -7.96365,-0.4562 z m 20.19261,-4.21309 c -1.87943,-0.75619 -4.22896,-5.81571 -4.22896,-9.10674 0,-6.62696 9.26475,-9.76441 13.98785,-4.7369 2.14548,2.28375 2.23951,2.81072 1.15024,6.44635 -1.75586,5.86054 -6.58685,9.13634 -10.90913,7.39729 z m 96.44693,-91.73294 c -0.53035,-1.38208 0.067,-2.59777 1.27649,-2.59777 0.34048,0 0.61905,0.9 0.61905,2 0,2.30634 -1.10605,2.65514 -1.89554,0.59777 z m 82.86682,-3.52867 c -0.31644,-0.512 -0.16515,-1.18441 0.33619,-1.49426 0.50134,-0.30984 1.16956,0.10906 1.48493,0.9309 0.6217,1.62012 -0.88076,2.0849 -1.82112,0.56336 z m 5.58618,-3.5697 c 0.16358,-1.65033 -0.0706,-3.59605 -0.52038,-4.32383 -0.67672,-1.09495 -0.45602,-1.09729 1.27937,-0.0135 1.45389,0.90797 1.91162,1.92751 1.49225,3.32383 -1.07671,3.58499 -2.5729,4.25858 -2.25124,1.01352 z m -6.52905,-2.86133 c -2.10412,-2.14645 -1.2264,-4.87416 1.75734,-5.46139 1.72963,-0.34041 2.17153,2.80869 0.82253,5.86155 -0.58783,1.3303 -0.93657,1.2762 -2.57987,-0.40016 z m 4.47911,-5.05474 c -0.0434,-1.05416 0.19293,-1.64479 0.52522,-1.3125 0.33229,0.33229 0.36781,1.19479 0.0789,1.91667 -0.31922,0.79773 -0.55618,0.56078 -0.60416,-0.60417 z m -13.34998,-0.6752 c -0.97407,-0.56708 -1.50949,-1.45424 -1.18983,-1.97146 0.31967,-0.51723 -0.53236,-1.36379 -1.8934,-1.88126 -3.24671,-1.2344 -4.06465,-4.12689 -2.32785,-8.23201 2.74846,-6.49627 7.79674,-8.70556 13.23811,-5.79343 2.20744,1.18139 2.36615,1.7824 2.0607,7.80372 -0.28565,5.63102 -0.70022,6.8414 -3.02958,8.84503 -2.96711,2.5522 -4.20487,2.77409 -6.85815,1.22941 z m -1.72897,-5.90813 c 0,-0.55 -0.47656,-1 -1.05902,-1 -0.58246,0 -0.7809,0.45 -0.44098,1 0.33992,0.55 0.81648,1 1.05902,1 0.24254,0 0.44098,-0.45 0.44098,-1 z m 6.98469,-5.30902 c 0.008,-0.44496 -0.43469,-0.5309 -0.98469,-0.19098 -0.55,0.33992 -0.99311,1.37898 -0.98469,2.30902 0.0132,1.45727 0.14929,1.48367 0.98469,0.19098 0.53316,-0.825 0.97627,-1.86406 0.98469,-2.30902 z m -18.45772,-11.56444 c -6.54399,-1.40175 -6.3303,-7.85409 0.49782,-15.03194 4.48374,-4.71338 5.45275,-4.93594 8.03165,-1.8446 2.25116,2.69848 2.46218,7.57301 0.52822,12.20163 -1.16652,2.79186 -4.48177,5.91238 -5.76892,5.43006 -0.17366,-0.0651 -1.65361,-0.4049 -3.28877,-0.75515 z m -37.86079,-4.79369 c -0.36694,-0.36694 -1.45444,-0.73491 -2.41667,-0.81772 -3.46712,-0.29838 -8.22548,-3.57121 -8.85837,-6.09283 -0.3508,-1.39773 -0.41277,-4.53803 -0.1377,-6.97845 0.96056,-8.52203 10.98676,-17.44385 19.60313,-17.44385 3.25394,0 4.47422,0.61272 7.03984,3.5348 2.74302,3.12413 3.10359,4.24063 3.10359,9.6103 0,5.13403 -0.49377,6.83753 -3.18638,10.99293 -2.99041,4.61499 -6.27733,6.68589 -9.56362,6.02549 -0.6875,-0.13816 -1.25,0.21853 -1.25,0.79264 0,1.15071 -3.27514,1.43537 -4.33382,0.37669 z m 21.51188,-11.83361 c -1.57779,-2.00583 -1.80659,-3.21242 -1.15609,-6.09665 1.51798,-6.73054 6.93156,-10.10338 11.92612,-7.43037 2.87249,1.53731 3.09012,3.5685 0.87956,8.2093 -3.95247,8.29777 -7.89122,10.0957 -11.64959,5.31772 z"
         style="fill:#575757" />
      <path
         inkscape:connector-curvature="0"
         id="path3778"
         d="m 249.39457,674.39939 c -1.84168,-0.66863 -1.7992,-0.81958 0.68965,-2.45034 1.74464,-1.14313 2.44238,-2.28469 2.03898,-3.33595 -0.47003,-1.22485 -0.18932,-1.43545 1.20178,-0.90164 1.6027,0.61502 1.65226,0.49893 0.42361,-0.99226 -1.26154,-1.53112 -1.13472,-1.62483 1.35856,-1.00384 1.64902,0.41071 2.75,0.27694 2.75,-0.33413 0,-0.56048 -0.45,-1.01905 -1,-1.01905 -2.41541,0 -0.71874,-2.00719 1.75,-2.07029 2.43684,-0.0623 2.52225,-0.16815 0.75,-0.92971 -1.1,-0.47269 -1.48998,-0.89106 -0.86663,-0.92971 1.43838,-0.0892 2.48122,-3.88144 1.27275,-4.62831 -0.49837,-0.30801 -0.90612,-0.0835 -0.90612,0.499 0,0.58246 -1.0125,1.05213 -2.25,1.04371 -1.61379,-0.011 -1.87284,-0.2544 -0.91615,-0.86084 2.00271,-1.26952 -1.08711,-2.19747 -5.09479,-1.53009 -2.64898,0.44112 -2.92025,0.33603 -1.48906,-0.57688 0.9625,-0.61394 1.75,-1.96838 1.75,-3.00987 0,-1.04148 0.9796,-2.57974 2.17688,-3.41835 2.1019,-1.47223 5.75438,-8.28225 3.79142,-7.06907 -1.77612,1.09771 -0.99651,-1.18409 1.0317,-3.01959 1.1,-0.99549 2.00422,-2.52773 2.00938,-3.40499 0.01,-1.66929 5.6524,-12.09501 6.54603,-12.09501 0.28323,0 -0.012,1.0125 -0.65594,2.25 l -1.17091,2.25 2.45017,-2.25 c 2.54217,-2.33448 5.82127,-3.01878 5.82127,-1.21482 0,0.69709 0.66236,0.6807 2.02801,-0.0502 2.52869,-1.35332 1.53402,-3.29817 -1.23701,-2.41868 -1.21855,0.38676 -2.36257,0.12689 -2.83963,-0.64502 -0.64926,-1.05052 -1.10481,-1.03886 -2.43158,0.0623 -1.38111,1.14622 -1.58543,1.13632 -1.32621,-0.0643 0.4379,-2.02826 2.05758,-2.95572 3.32492,-1.90392 1.73322,1.43845 5.44291,0.0477 4.74237,-1.77793 -0.42862,-1.11694 -0.22125,-1.33097 0.7237,-0.74696 0.80573,0.49797 1.08349,0.42868 0.70921,-0.17692 -0.64292,-1.04027 3.3839,-4.41756 6.77819,-5.68487 1.45139,-0.54189 1.63689,-0.94336 0.70267,-1.52074 -1.00295,-0.61986 -0.96329,-1.03844 0.189,-1.99476 2.0405,-1.69347 3.03203,0.2804 1.42969,2.84615 -0.70093,1.12237 -1.58784,2.04067 -1.9709,2.04067 -0.91103,0 -7.80249,7.27622 -7.81376,8.25 -0.0232,2.00269 3.37359,0.33265 6.61029,-3.25 1.98757,-2.2 4.1239,-3.98491 4.7474,-3.96647 0.6235,0.0184 -0.55358,1.41187 -2.61574,3.0965 -2.06216,1.68463 -3.4981,3.46954 -3.19098,3.96647 0.30712,0.49692 0.10295,0.9035 -0.45371,0.9035 -0.55665,0 -1.75163,1.55846 -2.65551,3.46324 -0.90388,1.90478 -2.45507,3.72085 -3.44708,4.0357 -1.06057,0.33661 -2.34674,2.41173 -3.12182,5.03676 -0.72498,2.45537 -1.66991,4.4643 -2.09983,4.4643 -0.42993,0 -0.81332,1.0125 -0.85197,2.25 -0.0507,1.62367 -0.2595,1.83245 -0.75,0.75 -0.92209,-2.03486 -3.17972,-2.36758 -3.17972,-0.46862 0,0.84227 0.7875,1.81212 1.75,2.15524 2.88746,1.02934 4.16176,2.37977 3.6078,3.82335 -0.28783,0.75006 -1.07697,1.15129 -1.75366,0.89162 -0.67668,-0.25967 -2.07671,0.46311 -3.11117,1.60618 -1.62643,1.79719 -1.65172,1.99038 -0.1869,1.42828 0.93166,-0.35752 1.69393,-1.12688 1.69393,-1.70971 0,-0.58282 0.26146,-0.79821 0.58102,-0.47865 0.31956,0.31956 0.11562,1.45062 -0.4532,2.51347 -0.67312,1.25773 -0.69315,2.27351 -0.0574,2.90927 0.63577,0.63577 0.27028,1.61625 -1.0468,2.80819 -2.39117,2.16397 -2.61623,4.35675 -0.52937,5.15755 0.82184,0.31537 1.2645,0.94515 0.98369,1.39952 -0.28082,0.45436 -0.0742,1.09579 0.45907,1.42539 0.5333,0.3296 1.46689,-1.32681 2.07465,-3.68091 0.60775,-2.35409 1.93819,-6.75517 2.95653,-9.78017 1.01834,-3.025 2.16717,-7.1875 2.55295,-9.25 0.47114,-2.51881 1.23945,-3.7517 2.34014,-3.75518 1.21426,-0.004 1.70007,-1.07403 1.87559,-4.13173 0.31183,-5.43224 1.66912,-7.03943 4.90568,-5.80889 3.09951,1.17843 3.62359,1.18545 2.91508,0.0391 -0.30822,-0.49871 0.38628,-0.65918 1.54334,-0.3566 1.23314,0.32247 2.46887,-0.0265 2.98607,-0.84326 0.73918,-1.16735 0.90551,-1.15005 1.02526,0.1066 0.0786,0.825 0.28168,2.625 0.45126,4 0.44734,3.62731 -0.6336,9.07475 -1.67322,8.43223 -0.48969,-0.30268 -0.89035,-1.40962 -0.89035,-2.4599 0,-1.30311 -0.48586,-1.72316 -1.5298,-1.32256 -0.93467,0.35866 -1.30771,1.28678 -0.95892,2.38574 0.45762,1.44181 0.14876,1.68831 -1.55664,1.24234 -1.68766,-0.44134 -2.06014,-0.15858 -1.80159,1.36761 0.17927,1.05819 -0.68183,3.0057 -1.91355,4.3278 -1.23173,1.3221 -2.23261,2.88147 -2.22419,3.46526 0.008,0.58379 0.45153,0.38644 0.98469,-0.43856 0.83259,-1.28834 1.35335,-0.83564 1.19021,1.03464 -0.0257,0.29406 1.28705,0.51906 2.91711,0.5 3.21864,-0.0376 4.85335,-1.78906 4.87737,-5.22562 0.0138,-1.98026 1.63274,-4.03005 2.49506,-3.15916 0.19068,0.19258 -0.0241,2.37341 -0.47727,4.84629 -0.45317,2.47288 -0.4675,4.72288 -0.0318,5 1.11516,0.70932 0.97876,6.00385 -0.15467,6.00385 -0.51371,0 -0.66165,0.4407 -0.32875,0.97933 1.0005,1.61885 -1.32628,4.85876 -3.73504,5.20083 -1.2387,0.17591 -2.66309,1.25498 -3.1653,2.39793 -0.83611,1.90286 -5.68462,4.8742 -8.08689,4.95594 -0.55,0.0187 -3.2004,0.6573 -5.88977,1.41909 -4.5016,1.27512 -4.99557,1.24038 -6.22248,-0.43752 -1.21207,-1.6576 -1.39016,-1.67291 -1.96722,-0.1691 -0.68332,1.78071 -3.42053,2.30365 -3.42053,0.6535 0,-1.37842 -2.72033,-1.26152 -3.59549,0.15451 -0.47214,0.76393 -0.27068,0.88081 0.59549,0.34549 0.89895,-0.55558 1.06863,-0.42006 0.54165,0.43261 -0.42205,0.68289 -1.6172,1.01939 -2.65589,0.74777 -1.03869,-0.27163 -1.65556,-0.11692 -1.37083,0.34378 0.78886,1.2764 -0.78099,1.81051 -2.97751,1.01305 z m 12.65008,-20.72032 c -0.72188,-0.28887 -1.58438,-0.25335 -1.91667,0.0789 -0.33229,0.33229 0.25834,0.56864 1.3125,0.52522 1.16495,-0.048 1.4019,-0.28494 0.60417,-0.60416 z m 9.8125,-28.43492 c 0,-0.55 -0.45,-0.72189 -1,-0.38197 -0.55,0.33992 -1,1.06803 -1,1.61803 0,0.55 0.45,0.72189 1,0.38197 0.55,-0.33992 1,-1.06803 1,-1.61803 z m -27,42.51038 c 0,-0.82763 1.94173,-1.29565 2.38691,-0.57533 0.28881,0.46731 -0.13009,0.84965 -0.9309,0.84965 -0.80081,0 -1.45601,-0.12345 -1.45601,-0.27432 z m 0.0442,-3.0953 c -0.0898,-2.44301 2.24585,-6.10817 4.56608,-7.16534 1.48311,-0.67576 2.38972,-0.71759 2.38972,-0.11027 0,0.53821 -0.66425,0.97856 -1.47611,0.97856 -0.81186,0 -2.36697,1.6875 -3.4558,3.75 -1.08884,2.0625 -1.99959,3.20867 -2.02389,2.54705 z m 44.4558,-41.29705 c -0.33992,-0.55 -0.14148,-1 0.44098,-1 0.58246,0 1.05902,0.45 1.05902,1 0,0.55 -0.19844,1 -0.44098,1 -0.24254,0 -0.7191,-0.45 -1.05902,-1 z m -28.10131,-2.25 c -0.39564,-0.6875 -0.35419,-0.91949 0.0921,-0.51554 0.4463,0.40395 1.38165,-0.0453 2.07857,-0.99843 0.69691,-0.95309 1.59303,-1.40697 1.99137,-1.00862 0.78621,0.7862 -1.29109,3.77259 -2.62416,3.77259 -0.4502,0 -1.14225,-0.5625 -1.53788,-1.25 z m 5.81651,-6.02963 c 1.30559,-1.05802 1.43694,-1.66823 0.55,-2.55517 -0.88693,-0.88693 -0.77875,-1.1652 0.45301,-1.1652 0.89002,0 2.44252,-0.3013 3.45,-0.66957 1.68261,-0.61503 1.66982,-0.48533 -0.15702,1.59263 -1.09385,1.2442 -2.89385,2.69533 -4,3.22473 -1.83412,0.8778 -1.86018,0.84017 -0.29599,-0.42742 z m 6.7848,-1.66135 c 0,-0.58246 0.45,-1.05902 1,-1.05902 0.55,0 1,0.19844 1,0.44098 0,0.24254 -0.45,0.7191 -1,1.05902 -0.55,0.33992 -1,0.14148 -1,-0.44098 z m 2,-6.83578 c 0,-0.46592 1.2375,-1.74811 2.75,-2.84932 4.82504,-3.51298 5.81816,-3.82521 3.25,-1.02177 -2.83524,3.09498 -6,5.13683 -6,3.87109 z m 6,-0.98269 c 0,-0.4177 0.9,-1.32152 2,-2.00848 2.18964,-1.36745 2.71186,-0.34393 0.8,1.56793 -1.35449,1.35449 -2.8,1.58193 -2.8,0.44055 z m -3.58455,-7.99055 c 8.13874,-6.72685 10.58455,-8.41971 10.58455,-7.32606 0,0.59183 -0.3421,1.07606 -0.76022,1.07606 -0.41812,0 -1.99312,1.14321 -3.5,2.54047 -1.50688,1.39726 -2.73978,2.32262 -2.73978,2.05637 0,-0.26625 -1.45029,0.84053 -3.22286,2.45953 -1.77258,1.619 -3.59994,2.94363 -4.06082,2.94363 -0.46088,0 1.20373,-1.6875 3.69913,-3.75 z m -8.53733,0.84649 c 0.75796,-0.48009 1.08812,-1.3421 0.73368,-1.91559 -0.35443,-0.57349 -0.11755,-1.36833 0.5264,-1.76631 0.69784,-0.43129 0.9039,-0.29172 0.51008,0.34549 -0.36341,0.58801 -0.12826,1.24659 0.52254,1.46353 1.66251,0.55417 0.0668,2.77961 -1.97984,2.76108 -1.35026,-0.0122 -1.4133,-0.1912 -0.31286,-0.8882 z m 16.20521,-0.37946 c 0.22917,-0.15563 1.31667,-0.94313 2.41667,-1.75 1.85001,-1.35701 1.89707,-1.33579 0.62755,0.28297 -0.75484,0.9625 -1.84234,1.75 -2.41666,1.75 -0.57432,0 -0.85672,-0.12734 -0.62756,-0.28297 z m -12.08333,-2.65801 c 0,-0.58246 0.45,-1.05902 1,-1.05902 0.55,0 1,0.19844 1,0.44098 0,0.24254 -0.45,0.7191 -1,1.05902 -0.55,0.33992 -1,0.14148 -1,-0.44098 z m 3.81424,-3.11395 c 1.27284,-0.51048 2.03378,-1.38196 1.69099,-1.93661 -0.3428,-0.55465 -0.11668,-1.00846 0.50247,-1.00846 0.61916,0 2.59787,-1.12285 4.39714,-2.49522 1.79927,-1.37236 3.50898,-2.25763 3.79936,-1.96725 0.29038,0.29038 0.40261,-0.61399 0.2494,-2.00971 -0.15597,-1.42086 0.14229,-2.27757 0.67772,-1.94666 0.52596,0.32506 1.61158,0.0472 2.41248,-0.61751 1.7081,-1.4176 1.79644,-0.98875 0.49916,2.42335 -0.97025,2.55195 -6.26665,6.05598 -7.41618,4.90645 -0.34473,-0.34473 -0.62678,0.11166 -0.62678,1.0142 0,1.65826 -4.80282,4.74589 -7.20034,4.62896 -0.71481,-0.0349 -0.25825,-0.48105 1.01458,-0.99154 z m -9.81424,-4.38605 c 0,-0.24254 0.45,-0.7191 1,-1.05902 0.55,-0.33992 1,-0.14148 1,0.44098 0,0.58246 -0.45,1.05902 -1,1.05902 -0.55,0 -1,-0.19844 -1,-0.44098 z m 6.56429,-0.85215 c 0.37553,-0.98622 0.93469,-1.54122 1.24258,-1.23333 0.30789,0.30789 6.4e-4,1.11479 -0.68278,1.79313 -0.98762,0.98026 -1.10248,0.8654 -0.5598,-0.5598 z m 16.43571,0.59054 c 0,-1.15426 2.83788,-3.82058 3.39515,-3.18991 0.19076,0.21587 -0.49512,1.25873 -1.52416,2.31747 -1.02905,1.05873 -1.87099,1.45133 -1.87099,0.87244 z m -14,-1.26223 c 0,-1.33195 3.82315,-3.26251 5.00921,-2.52949 0.53234,0.329 0.73914,0.002 0.45956,-0.72647 -0.28783,-0.75009 0.76105,-2.07448 2.41822,-3.05339 2.78058,-1.64253 2.90326,-1.6414 2.45977,0.0227 -0.49159,1.84462 -7.39346,7.25147 -9.25654,7.25147 -0.59962,0 -1.09022,-0.43417 -1.09022,-0.96482 z m -7.5,-4.11175 c 1.1,-0.64464 2.5625,-1.87714 3.25,-2.73888 0.6875,-0.86175 1.24311,-1.1433 1.23469,-0.62568 -0.0287,1.76539 -1.48171,3.17075 -3.98469,3.8541 -2.27959,0.62235 -2.32367,0.57919 -0.5,-0.48954 z m 6,0.39208 c 0.55,-0.44853 1,-1.47722 1,-2.28598 0,-0.80875 1.125,-2.03962 2.5,-2.73526 1.83013,-0.92589 2.03109,-1.26874 0.75,-1.27953 -2.41272,-0.0203 -2.19091,-1.82633 0.5,-4.07118 1.9903,-1.66037 2.04042,-1.88086 0.43426,-1.91029 -0.99866,-0.0183 -2.68616,0.43256 -3.75,1.00191 -1.10964,0.59387 -1.93426,0.64008 -1.93426,0.10841 0,-0.50972 1.21005,-1.23048 2.689,-1.60167 1.47896,-0.37119 3.84146,-1.48082 5.25,-2.46582 1.40855,-0.98501 3.911,-2.2527 5.561,-2.81709 2.49614,-0.85381 2.70478,-1.14816 1.24228,-1.75254 -1.06482,-0.44003 -2.78872,-0.0508 -4.37312,0.98731 -1.4545,0.95302 -2.26941,1.15384 -1.83591,0.45242 0.5713,-0.92438 0.17779,-1.1039 -1.47333,-0.67212 -2.66216,0.69617 -5.28111,-0.10718 -4.49516,-1.37886 0.3043,-0.49237 0.0767,-0.89522 -0.50574,-0.89522 -1.59535,0 -1.27324,-2.10581 0.64659,-4.2272 1.45821,-1.6113 1.51351,-2.19229 0.38125,-4.00532 -1.13786,-1.82201 -1.08364,-2.29667 0.38508,-3.37062 1.13615,-0.83077 1.48917,-1.94404 1.05261,-3.3195 -0.75743,-2.38645 0.5702,-6.92629 4.66989,-15.96876 1.59376,-3.51526 2.72283,-7.11526 2.50904,-8 -0.27958,-1.15704 -0.70665,-0.83663 -1.52134,1.1414 -1.5767,3.82815 -2.16238,3.43034 -1.47226,-1 0.84397,-5.41801 2.13695,-8.4627 3.29095,-7.74949 0.66529,0.41118 0.63856,1.30478 -0.0791,2.64582 -1.1596,2.16674 -0.45374,3.83808 0.96588,2.287 1.35602,-1.4816 2.36716,-6.70879 1.15252,-5.9581 -1.76035,1.08795 -1.16059,-3.43524 0.70992,-5.354 2.87856,-2.95282 11.09176,-8.18898 11.57034,-7.37645 0.89674,1.52246 -1.30972,5.25522 -3.1064,5.25522 -1.55965,0 -1.79829,0.66007 -1.5183,4.19959 0.18271,2.30977 0.76315,4.46593 1.28987,4.79146 0.52672,0.32553 0.75026,1.73572 0.49675,3.13374 -0.32477,1.79101 -0.021,2.54188 1.0284,2.54188 1.63315,0 2.06683,-2.29837 0.53463,-2.83334 -0.53451,-0.18662 -0.25661,-1.76966 0.63139,-3.59673 1.25742,-2.58713 1.86972,-3.02802 2.95471,-2.12755 1.35167,1.12178 1.49822,1.01455 1.74361,-1.27572 0.0687,-0.64166 0.64563,-1.34021 1.28195,-1.55231 0.86177,-0.28726 0.89219,0.6574 0.11925,3.70258 -1.06399,4.19179 -0.30149,6.67579 1.23034,4.00807 0.47109,-0.82042 1.56344,-2.39167 2.42745,-3.49167 1.57092,-2 1.57092,-2 0.99296,0 -0.52462,1.8154 -0.4737,1.83775 0.55167,0.24208 0.62129,-0.96686 0.81074,-2.27388 0.42099,-2.90451 -0.45123,-0.73011 -0.26482,-0.8723 0.51319,-0.39146 0.78093,0.48264 1.42537,-0.0233 1.78593,-1.40205 0.33947,-1.29815 1.10911,-1.94804 1.93269,-1.632 0.77525,0.29749 1.36858,-0.11153 1.36858,-0.94344 0,-0.80774 0.37777,-1.46862 0.83948,-1.46862 0.46172,0 1.43639,-1.2375 2.16593,-2.75 2.12927,-4.41446 2.06296,-5.2157 -0.35397,-4.27741 -1.18329,0.45936 -2.04434,1.31226 -1.91344,1.89532 0.13091,0.58306 -0.43159,0.80316 -1.25,0.48911 -0.98579,-0.37828 -1.49317,0.0557 -1.50331,1.28599 -0.0111,1.34465 -0.24039,1.50226 -0.83109,0.57128 -0.5007,-0.78914 -3.1018,-1.32542 -6.73469,-1.38853 -5.76083,-0.10007 -5.83879,-0.13753 -2.91891,-1.40263 1.65,-0.7149 4.30206,-1.08477 5.89346,-0.82193 1.99223,0.32903 3.54959,-0.13664 5,-1.49505 1.1586,-1.08511 3.34404,-2.44176 4.85654,-3.01479 2.58071,-0.97772 2.75094,-0.87409 2.76531,1.68339 0.0182,3.23287 0.45257,3.90923 4.81142,7.49134 3.25721,2.67678 3.6065,2.73391 16.71607,2.73391 10.48133,0 14.15548,-0.36534 16.91684,-1.68215 l 3.5275,-1.68214 3.94756,3.92401 c 2.17116,2.1582 4.71752,3.92767 5.65858,3.93214 1.9983,0.01 2.84847,3.61709 1.10617,4.69389 -0.84417,0.52173 -0.6141,1.15617 0.79215,2.18445 1.93057,1.41166 1.93401,1.50203 0.13305,3.49207 -1.33778,1.47822 -2.61353,1.88995 -4.61545,1.48957 -1.64162,-0.32832 -3.0702,-0.0622 -3.51315,0.65455 -0.53419,0.86434 -0.14206,1.01603 1.37872,0.53336 1.19774,-0.38015 2.12523,-0.23905 2.12523,0.32331 0,0.54881 -0.93217,1.14164 -2.07149,1.31739 -1.13932,0.17575 -2.82682,1.66955 -3.75,3.31955 -0.92318,1.65 -1.90351,3.225 -2.17851,3.5 -0.51272,0.51272 -0.97277,2.73434 -1.41017,6.80989 -0.13635,1.27044 -0.99984,3.18808 -1.91887,4.26143 -0.91903,1.07335 -1.67096,2.66954 -1.67096,3.5471 0,1.03116 -0.54896,1.3849 -1.55194,1.00002 -0.85356,-0.32754 -1.31174,-0.20689 -1.01817,0.26811 0.29356,0.47501 -1.37056,1.19284 -3.69807,1.59519 -7.31395,1.26436 -10.73182,1.45133 -10.73182,0.58708 0,-0.70909 -2.67686,-1.958 -5.21758,-2.4343 -1.78272,-0.3342 -4.78242,-3.79512 -4.78242,-5.51774 0,-2.59286 -2.21106,-3.23873 -5.4085,-1.57987 -1.46154,0.75825 -2.39416,0.9528 -2.07248,0.43232 0.32167,-0.52048 -0.11093,-0.67932 -0.96134,-0.35299 -0.85041,0.32633 -1.32431,0.95234 -1.05312,1.39113 0.61272,0.9914 -5.39872,3.17607 -6.63574,2.41156 -0.49579,-0.30642 -0.59696,-1.08853 -0.22481,-1.73803 0.38922,-0.67927 0.28995,-0.82691 -0.23368,-0.34757 -0.50068,0.45834 -0.97086,1.13334 -1.04485,1.5 -0.58917,2.91984 -1.74383,5.05087 -2.48763,4.59118 -0.49212,-0.30415 -1.29693,0.48841 -1.78846,1.76125 l -0.89369,2.31424 -1.03446,-2.5 -1.03447,-2.5 -0.0634,2.84571 c -0.0349,1.56514 -0.73531,4.04014 -1.55654,5.5 -0.82123,1.45986 -1.93183,3.88319 -2.46799,5.38519 -0.68103,1.90784 -1.45214,2.54774 -2.55853,2.12318 -1.07013,-0.41065 -3.2694,1.15625 -6.78201,4.83193 -6.7984,7.114 -14.56892,13.36823 -17.69832,14.24476 -1.375,0.38513 -2.05,0.33327 -1.5,-0.11526 z m 12.36024,-22.31551 c 0.62687,0 1.13976,-0.45 1.13976,-1 0,-0.55 -0.30207,-1 -0.67126,-1 -1.15423,0 -4.33031,3.25594 -4.29694,4.40499 0.0175,0.60225 0.6296,0.30751 1.36025,-0.65499 0.73064,-0.9625 1.84133,-1.75 2.46819,-1.75 z m 15.13976,0.44098 c 0,-0.24254 -0.45,-0.44098 -1,-0.44098 -0.55,0 -1,0.47656 -1,1.05902 0,0.58246 0.45,0.7809 1,0.44098 0.55,-0.33992 1,-0.81648 1,-1.05902 z m -11.1592,-6.55767 c 0.71378,-1.14294 1.05285,-2.323 0.75349,-2.62235 -0.56884,-0.56884 -4.50315,3.70759 -4.56102,4.95766 -0.0616,1.33095 2.49855,-0.2393 3.80753,-2.33531 z m 3.6592,2.11669 c 0.78218,-1.2656 -0.54163,-1.2656 -2.5,0 -1.29269,0.8354 -1.26629,0.97149 0.19098,0.98469 0.93004,0.008 1.9691,-0.43469 2.30902,-0.98469 z m 7.05887,-9.4682 c 1.63076,-1.23344 1.68089,-1.47328 0.31358,-1.5 -0.89516,-0.0175 -2.18776,0.6432 -2.87245,1.4682 -1.59557,1.92255 0.0323,1.94278 2.55887,0.0318 z m 43.94113,-4.5318 c 0.33992,-0.55 -0.0467,-1 -0.8592,-1 -0.81247,0 -2.18903,-0.27314 -3.05901,-0.60699 -0.86999,-0.33384 -1.58179,-0.14184 -1.58179,0.42668 0,0.8859 1.46245,1.60625 4.19098,2.06431 0.38004,0.0638 0.9691,-0.334 1.30902,-0.884 z m 17.52006,-16.52417 c 1.9723,-2.37648 0.56118,-2.71453 -2.01275,-0.48217 -1.68371,1.46027 -1.89675,2.00634 -0.78276,2.00634 0.84181,0 2.09979,-0.68587 2.79551,-1.52417 z m -58.02006,-3.09827 c 0,-0.20766 -0.6,-0.37756 -1.33333,-0.37756 -0.73334,0 -1.33334,0.66786 -1.33334,1.48412 0,1.12339 0.32409,1.21516 1.33334,0.37756 0.73333,-0.60861 1.33333,-1.27647 1.33333,-1.48412 z m 55,1.12244 c 1.35129,-1.62821 1.02807,-1.83174 -1.41821,-0.89301 -0.86999,0.33384 -1.58179,1.00884 -1.58179,1.5 0,1.38323 1.62035,1.05539 3,-0.60699 z m 0.0489,-3.69686 c 3.27313,-2.30827 5.95114,-4.5886 5.95114,-5.06739 0,-0.47879 0.92838,-0.57587 2.06306,-0.21574 1.76349,0.55972 1.9193,0.388 1.07299,-1.18261 -0.54453,-1.01057 -1.30029,-2.7374 -1.67948,-3.8374 -0.43127,-1.25111 -0.86425,-1.53194 -1.15633,-0.75 -0.2568,0.6875 -1.10441,1.25 -1.88357,1.25 -0.77917,0 -1.41667,0.48032 -1.41667,1.06739 0,0.62319 0.85855,0.79489 2.06306,0.4126 1.85777,-0.58964 1.93776,-0.45417 0.80389,1.36144 -0.69254,1.10894 -2.18341,2.47398 -3.31305,3.03344 -1.12965,0.55946 -3.56835,2.01857 -5.41935,3.24247 l -3.36546,2.22526 1.356,-2.1713 c 0.7458,-1.19421 1.61175,-2.1713 1.92433,-2.1713 0.31258,0 1.44183,-0.66069 2.50945,-1.4682 1.47533,-1.11588 1.58119,-1.47374 0.44113,-1.49132 -0.825,-0.0127 -3.27523,1.65907 -5.44495,3.7151 -3.1006,2.93812 -3.57956,3.8086 -2.23776,4.06701 0.93896,0.18082 1.45013,0.74472 1.13594,1.25309 -1.09989,1.77965 0.69315,0.89001 6.59563,-3.27254 z m -64.5489,0.19686 c 0.33992,-0.55 -0.0835,-1 -0.94098,-1 -0.85746,0 -1.55902,0.45 -1.55902,1 0,0.55 0.42344,1 0.94098,1 0.51754,0 1.2191,-0.45 1.55902,-1 z m 10.5,-0.55902 c 0,-0.24254 -0.45,-0.44098 -1,-0.44098 -0.55,0 -1,0.47656 -1,1.05902 0,0.58246 0.45,0.7809 1,0.44098 0.55,-0.33992 1,-0.81648 1,-1.05902 z m 60.427,0.0376 c 3.11123,-2.35379 1.10518,-2.77324 -2.56422,-0.53616 -2.58942,1.57867 -2.90283,2.0437 -1.36278,2.02209 1.1,-0.0154 2.86715,-0.68411 3.927,-1.48593 z m 4.90657,-2.05164 c -0.85303,-2.22296 -1.81879,-1.68139 -1.98006,1.11035 -0.11615,2.01067 0.13041,2.30603 1.19056,1.42618 0.73538,-0.6103 1.09065,-1.75175 0.7895,-2.53653 z m -43.90657,-2.94841 c 1.05985,-0.80183 1.73485,-1.64878 1.5,-1.88212 -0.23485,-0.23334 -1.48935,0.43701 -2.78778,1.48967 -2.73515,2.21742 -1.58697,2.56733 1.28778,0.39245 z m 33.16801,-3.62404 c 1.89176,-2.13061 1.88975,-2.13752 -0.28932,-0.99462 -2.43073,1.27489 -3.92743,3.14013 -2.51969,3.14013 0.49721,0 1.76127,-0.96548 2.80901,-2.14551 z m -37.09501,0.14551 c -0.75498,1.2812 -0.6435,1.30511 0.76424,0.16391 0.90648,-0.73485 2.18739,-1.00282 2.84646,-0.59549 0.81295,0.50243 0.93508,0.31466 0.37976,-0.58385 -0.57696,-0.93354 -0.37443,-1.15402 0.68618,-0.74703 0.8276,0.31758 2.13892,0.17594 2.91404,-0.31475 1.13822,-0.72055 1.07269,-0.89511 -0.34068,-0.90748 -0.9625,-0.008 -1.75,-0.46531 -1.75,-1.01531 0,-0.55 -0.675,-1 -1.5,-1 -0.825,0 -1.5,0.43588 -1.5,0.96862 0,0.53273 -0.5625,0.7704 -1.25,0.52815 -1.7443,-0.61463 -5.09911,2.12934 -4.26111,3.48525 0.49486,0.80071 1.1411,0.74898 2.2921,-0.18346 1.35446,-1.09728 1.46591,-1.06605 0.71901,0.20144 z m -30.5,70.05902 c 0,-0.51754 0.44485,-1.21592 0.98855,-1.55194 0.56686,-0.35034 0.7345,0.0511 0.39301,0.94098 -0.66479,1.73242 -1.38156,2.04939 -1.38156,0.61096 z m -3.77381,-5.63268 c 0.9494,-0.99401 2.00045,-1.53304 2.33565,-1.19784 0.3352,0.3352 -0.44159,1.14849 -1.72619,1.80729 -2.23286,1.14512 -2.25968,1.1183 -0.60946,-0.60945 z m 6.77381,-0.19691 c 0,-0.5585 0.675,-1.27447 1.5,-1.59106 0.825,-0.31658 1.5,-0.41982 1.5,-0.22943 0,0.19039 -0.675,0.90637 -1.5,1.59106 -0.86459,0.71755 -1.5,0.81474 -1.5,0.22943 z m -1.50394,-5.50665 c 1.53056,-2.07747 3.03451,-3.52554 3.34211,-3.21795 0.30759,0.3076 -0.94468,2.00735 -2.78284,3.77722 l -3.3421,3.21795 2.78283,-3.77722 z m 152.17372,-23.63945 c -2.19899,-4.53486 -2.60663,-16.38629 -0.60615,-17.62266 0.515,-0.31829 0.93637,-1.40071 0.93637,-2.40538 0,-2.60525 2.54311,-7.16425 3.50879,-6.29016 0.44652,0.40418 0.45,0.11062 0.008,-0.65234 -0.53193,-0.91763 0.006,-2.04717 1.58968,-3.33678 1.3166,-1.07226 1.76179,-1.61599 0.98931,-1.20828 -0.92638,0.48894 -1.16161,0.34827 -0.69098,-0.41322 0.39244,-0.63498 1.43697,-1.15451 2.32117,-1.15451 0.88421,0 1.3256,-0.28205 0.98087,-0.62678 -0.34473,-0.34474 0.0418,-1.91974 0.85901,-3.5 1.02869,-1.98982 2.24626,-2.87322 3.95983,-2.87322 1.93863,0 2.47432,-0.51474 2.47432,-2.37756 0,-1.30765 0.66754,-2.93156 1.48343,-3.60869 1.22979,-1.02063 1.65417,-0.78203 2.48206,1.39549 1.04716,2.75422 4.48744,4.59076 8.59961,4.59076 1.33919,0 2.44179,-0.5625 2.45021,-1.25 0.0102,-0.83031 0.33487,-0.74637 0.96708,0.25 0.80988,1.27639 1.2921,1.14406 3.23469,-0.88762 1.25561,-1.3132 1.74957,-2.09215 1.09769,-1.73102 -1.37455,0.76149 -2.00445,-3.58314 -1.46578,-10.10998 0.30074,-3.64389 0.63913,-4.18434 2.4472,-3.90841 1.15401,0.17612 2.27197,0.8415 2.48434,1.47862 0.67505,2.02514 3.67772,1.23287 4.84143,-1.27744 0.78716,-1.69803 0.80705,-2.73514 0.0667,-3.47553 -0.58041,-0.58041 -0.71404,-1.39654 -0.29695,-1.81362 0.41708,-0.41709 1.19386,0.0199 1.72616,0.97107 0.5323,0.95117 1.96105,2.24325 3.175,2.87128 1.93721,1.00221 1.8762,0.78859 -0.49885,-1.74655 -1.48831,-1.58864 -2.69836,-3.78446 -2.689,-4.87961 0.009,-1.09516 -0.29526,-4.6498 -0.67695,-7.89921 -0.64762,-5.51335 -0.56819,-5.85993 1.189,-5.18823 1.57135,0.60066 1.51061,0.37213 -0.36703,-1.38094 -2.47023,-2.30634 -2.89268,-4.50758 -1.08006,-5.62784 0.78205,-0.48333 0.9623,-0.18197 0.54367,0.90896 -0.78827,2.0542 1.21862,3.42376 2.34541,1.60058 0.45947,-0.74345 0.48884,-1.5886 0.0653,-1.87812 -1.37933,-0.94275 -1.86476,-3.48277 -1.05617,-5.52639 0.63253,-1.59866 0.80543,-1.31438 0.86161,1.41667 0.08,3.88757 1.00418,3.45299 2.58421,-1.21516 0.59599,-1.76083 1.60798,-3.09441 2.24886,-2.96351 1.60875,0.3286 0.41662,-2.45518 -1.3401,-3.1293 -0.78256,-0.30026 -1.42277,-0.99593 -1.42277,-1.54593 0,-0.55 0.675,-0.74098 1.5,-0.4244 2.05058,0.78688 1.90746,-1.61994 -0.18741,-3.15175 -1.47449,-1.07818 -1.548,-1.91226 -0.58257,-6.61024 1.42766,-6.94731 1.46677,-15.93433 0.0766,-17.60935 -0.8533,-1.02817 -0.69302,-1.16066 0.73923,-0.61105 1.45387,0.5579 1.27787,-0.0205 -0.85856,-2.8215 -1.47799,-1.93779 -2.68729,-4.25416 -2.68729,-5.14749 0,-1.10407 -0.5329,-1.41973 -1.66404,-0.98567 -1.21605,0.46664 -1.44111,0.27783 -0.83596,-0.70132 0.61225,-0.99064 0.37499,-1.16601 -0.91026,-0.67281 -3.06796,1.17729 -4.92555,-1.86051 -4.23198,-6.9207 0.76526,-5.58317 -0.94377,-6.62144 -4.88571,-2.96817 -1.52025,1.40892 -2.36089,2.59611 -1.86807,2.63819 0.49281,0.0421 1.66956,0.22522 2.61501,0.40697 0.94544,0.18175 1.67965,0.0348 1.63158,-0.32652 -0.28087,-2.11099 0.28485,-4.15696 1.14943,-4.15696 1.42594,0 1.24053,1.69086 -0.61394,5.59887 -1.41467,2.9812 -2.07935,3.40113 -5.38337,3.40113 -3.05967,0 -3.88553,-0.42366 -4.38603,-2.25 -0.50798,-1.85359 -0.78446,-1.98882 -1.5693,-0.76756 -0.79732,1.24065 -1.44784,1.00806 -3.98852,-1.42607 -1.66971,-1.59968 -3.31824,-3.84178 -3.6634,-4.98244 -0.34516,-1.14066 -1.75228,-3.5745 -3.12692,-5.40852 -1.4066,-1.87667 -2.12097,-3.71261 -1.63393,-4.19921 0.47598,-0.47554 0.7053,-3.19949 0.5096,-6.05323 -0.23807,-3.47171 -0.64662,-4.72938 -1.23469,-3.80079 -0.58992,0.93154 -0.8785,0.0727 -0.87774,-2.61218 0.002,-5.49226 3.4662,-11.1327 9.46824,-15.4143 4.27306,-3.04823 5.79963,-3.56743 10.5,-3.57116 6.12641,-0.005 11.48782,0.88017 13.30237,2.1959 0.65869,0.47762 2.76765,0.77308 4.68657,0.65657 1.91891,-0.1165 3.82452,0.31576 4.23468,0.96058 0.55551,0.87332 0.74966,0.85352 0.76107,-0.0776 0.0197,-1.61074 2.48423,-1.61074 4.21769,0 0.73988,0.6875 1.9374,1.37596 2.66116,1.52991 0.72375,0.15395 2.44155,1.61766 3.81734,3.25268 1.37578,1.63503 2.97993,2.67704 3.56478,2.31559 0.58485,-0.36146 0.78135,-0.2009 0.43667,0.3568 -0.34468,0.5577 0.71079,2.2057 2.34549,3.66223 3.50806,3.12569 3.70667,4.20746 0.90691,4.93961 -1.99071,0.52058 -2.00569,0.65529 -0.4149,3.73153 1.26412,2.44453 1.923,2.91477 2.81527,2.00923 0.88817,-0.90137 0.77567,-1.46999 -0.47354,-2.39356 -1.50355,-1.11162 -1.47725,-1.4104 0.31949,-3.62927 1.53478,-1.89538 2.13902,-2.1249 2.79591,-1.06202 0.4609,0.74575 0.61218,2.07171 0.33619,2.94659 -0.43219,1.36997 -0.35644,1.38482 0.54593,0.10705 0.85327,-1.20825 1.33013,-0.80778 2.56915,2.15761 0.83677,2.00268 2.66096,4.53762 4.05375,5.63319 2.83803,2.23239 2.50225,5.19283 -0.58897,5.19283 -1.04115,0 -1.89301,0.45 -1.89301,1 0,0.55 -0.47656,1 -1.05902,1 -0.58246,0 -0.7809,-0.45 -0.44098,-1 0.33992,-0.55 0.14148,-1 -0.44098,-1 -0.58246,0 -1.05902,-0.675 -1.05902,-1.5 0,-2.20525 -2.98289,-1.82575 -5.1327,0.65301 -2.02218,2.33159 -2.42766,7.24294 -0.9244,11.19681 0.72541,1.90796 0.59545,2.61335 -0.56338,3.05804 -0.8331,0.31969 -1.18628,1.09579 -0.79026,1.73657 0.93963,1.52036 3.47661,-1.8092 2.77388,-3.64048 -0.27472,-0.71591 -0.0188,-1.59872 0.56869,-1.96182 1.72071,-1.06345 1.75026,8.90288 0.0326,10.99141 -1.12788,1.37139 0.27784,3.55281 1.71648,2.66367 0.62047,-0.38346 1.14204,-0.92221 1.15906,-1.19721 0.017,-0.275 0.37855,-1.4 0.8034,-2.5 0.42486,-1.1 1.91935,-5.375 3.3211,-9.5 1.78206,-5.24416 3.06385,-7.54025 4.26158,-7.6338 1.59089,-0.12427 3.09857,2.31368 2.647,4.28024 -0.1078,0.46946 0.32666,2.12035 0.96548,3.66866 1.48145,3.59063 1.46501,3.73861 -0.33852,3.04653 -0.825,-0.31659 -1.5375,-0.18996 -1.58333,0.28138 -0.42742,4.39551 -0.81891,5.59149 -2.40346,7.3424 -1.00275,1.10802 -1.34094,2.01459 -0.75153,2.01459 0.58941,0 1.25177,-0.54034 1.4719,-1.20075 0.31053,-0.93159 0.56757,-0.93001 1.14672,0.007 0.44599,0.72164 0.0473,1.47611 -0.99053,1.87435 -1.8056,0.69288 -5.38977,3.9211 -5.38977,4.85451 0,0.29435 0.95207,0.0257 2.1157,-0.5971 1.68737,-0.90305 2.02581,-0.85956 1.67167,0.21481 -0.24421,0.74091 -1.53378,1.51568 -2.8657,1.72172 -2.12691,0.329 -2.19375,0.45754 -0.54916,1.05606 1.75638,0.63919 1.76794,0.78603 0.18624,2.36772 -1.67886,1.67886 -1.26271,4.25472 0.51035,3.1589 0.51199,-0.31643 0.9309,-0.12532 0.9309,0.42468 0,1.58048 -1.78142,2.26426 -2.27769,0.87426 -0.24667,-0.69093 -0.8469,-0.88194 -1.33383,-0.42447 -0.50133,0.47099 -0.0927,1.41136 0.94214,2.16804 1.46204,1.06908 1.6117,1.73946 0.74843,3.3525 -1.31963,2.46574 -1.35397,3.1477 -0.15851,3.1477 0.5063,0 1.21023,-1.31891 1.56428,-2.9309 0.67381,-3.06782 3.51518,-6.40277 3.51518,-4.1258 0,0.6535 -0.45069,2.03031 -1.00154,3.05957 -0.55084,1.02926 -1.16022,3.13718 -1.35418,4.68426 -0.19395,1.54708 -0.92513,4.16287 -1.62484,5.81287 -2.38846,5.63226 -5.49154,11.99923 -6.09215,12.5 -0.32983,0.275 -1.10735,1.98362 -1.72783,3.79694 -0.62048,1.81332 -2.04419,4.46151 -3.1638,5.88486 -1.93705,2.46262 -2.03567,2.48457 -2.03567,0.45313 0,-1.17417 -0.40787,-2.13486 -0.90638,-2.13486 -0.49851,0 -0.71082,-1.0125 -0.47179,-2.25 0.415,-2.1486 0.38743,-2.14247 -0.61169,0.13596 -0.57546,1.31228 -1.15065,4.57156 -1.27821,7.24283 -0.12756,2.67127 -0.53643,4.86009 -0.90861,4.86404 -0.37217,0.004 -0.88247,0.79467 -1.13399,1.75717 -0.38566,1.47574 -0.47647,1.43656 -0.57949,-0.25 -0.0672,-1.1 -0.73106,-3.16687 -1.47526,-4.59303 -0.74421,-1.42617 -1.66183,-4.23867 -2.03916,-6.25 -0.37732,-2.01134 -1.15141,-3.65697 -1.72019,-3.65697 -1.04425,0 -0.30186,5.49887 1.01255,7.5 0.36126,0.55 0.6468,2.68737 0.63453,4.74971 -0.0123,2.06233 0.31519,3.74983 0.72769,3.75 0.90352,3.5e-4 0.97793,10.54705 0.0976,13.83482 -0.48016,1.79327 -0.84242,2.02512 -1.56248,1 -0.66238,-0.943 -1.07582,-0.99894 -1.40921,-0.19069 -0.2595,0.62911 -1.35024,0.91413 -2.42387,0.63337 -1.1186,-0.29252 -1.95205,-0.009 -1.95205,0.66518 0,0.6466 -0.3842,0.9382 -0.85377,0.64798 -0.46958,-0.29021 -1.34436,0.54906 -1.94396,1.86505 -0.88227,1.93636 -0.76712,2.64559 0.60377,3.71864 1.46058,1.14327 1.53556,1.11929 0.54425,-0.17406 -0.88259,-1.15148 -0.8245,-1.79959 0.25,-2.78943 1.18119,-1.08812 1.39971,-0.66654 1.39971,2.70031 0,2.37847 -0.56693,4.3127 -1.40379,4.78943 -0.77209,0.43983 -1.55959,1.92469 -1.75,3.29969 -0.2398,1.73158 -0.8841,2.40968 -2.09621,2.20616 -1.17757,-0.19772 -1.75,0.35541 -1.75,1.69099 0,1.09165 -0.46804,2.27408 -1.04008,2.62762 -0.66908,0.41352 -0.81853,-0.23992 -0.41897,-1.83189 0.34539,-1.37615 0.14123,-2.77127 -0.45992,-3.1428 -0.70589,-0.43626 -1.08103,0.71999 -1.08103,3.33189 0,2.2 -0.47657,4.29453 -1.05905,4.65452 -0.58248,0.36 -0.94854,1.62405 -0.81348,2.80902 0.13506,1.18497 -0.14961,3.27949 -0.63259,4.65449 -0.48299,1.375 -0.75531,3.33669 -0.60515,4.35931 0.16497,1.12347 -0.15494,1.59481 -0.80835,1.19098 -0.59475,-0.36758 -1.08137,-0.17611 -1.08137,0.42549 0,0.6016 -1.39662,-0.49685 -3.10359,-2.44098 -3.01591,-3.43493 -4.89641,-4.45323 -4.89641,-2.65143 0,0.48585 0.82373,1.09878 1.83051,1.36206 1.38762,0.36287 1.77133,1.29839 1.58593,3.86663 -0.13452,1.86337 -0.28325,3.55554 -0.33051,3.76038 -0.0473,0.20485 -0.78223,-0.20543 -1.63326,-0.91172 -1.24245,-1.03114 -1.29171,-1.46226 -0.25,-2.18796 0.84113,-0.58597 0.4621,-0.66724 -1.0779,-0.23113 -1.61558,0.45751 -2.15639,0.31855 -1.69098,-0.4345 1.23559,-1.99923 -1.03835,-1.15695 -3.25948,1.20732 -1.19587,1.27295 -2.17431,3.07295 -2.17431,4 0,0.92705 -0.62041,1.68555 -1.37868,1.68555 -0.75827,0 -1.94089,1.35729 -2.62803,3.01619 -0.99214,2.39525 -1.53188,2.78171 -2.62176,1.87719 -1.10103,-0.91377 -1.49591,-0.52149 -1.99697,1.98381 -0.34351,1.71755 -1.13081,3.16031 -1.74956,3.20614 -0.61875,0.0458 -2.1375,0.19563 -3.375,0.33288 -1.47089,0.16314 -2.27195,-0.29855 -2.31339,-1.33333 -0.0368,-0.91812 -0.4783,-0.54306 -1.05135,0.89305 -0.79146,1.98346 -1.16595,2.18794 -1.88282,1.02802 -0.77026,-1.24631 -0.97794,-1.23136 -1.49168,0.10741 -0.99622,2.59612 -3.00721,1.75366 -4.84098,-2.02803 z m 21.72323,-8.66512 c 0.88405,-2.3038 0.74315,-3.62039 -0.31733,-2.96498 -0.50837,0.31419 -1.13117,-0.22175 -1.384,-1.19099 -0.25282,-0.96923 -0.51188,-0.0747 -0.57568,1.98776 -0.11794,3.81259 1.17395,5.04274 2.27701,2.16821 z m -13.8064,-9.96611 c 0.28214,-2.78344 0.2168,-2.8412 -1.14369,-1.01097 -1.72512,2.32076 -1.90128,4.87832 -0.29923,4.34431 0.62903,-0.20968 1.27834,-1.70968 1.44292,-3.33334 z m 6.76273,-3.92007 c 0.68372,-1.78176 -0.89181,-2.92158 -2.94783,-2.13261 -1.24246,0.47678 -1.27746,0.83192 -0.20211,2.05058 1.66647,1.88856 2.44889,1.90893 3.14994,0.082 z m 12.65066,-2.47301 c 0,-0.51754 -0.45,-1.2191 -1,-1.55902 -0.55,-0.33992 -1,0.0835 -1,0.94098 0,0.85746 0.45,1.55902 1,1.55902 0.55,0 1,-0.42344 1,-0.94098 z m 13,-1.05902 c 0,-0.55 -0.45,-1 -1,-1 -0.55,0 -1,0.45 -1,1 0,0.55 0.45,1 1,1 0.55,0 1,-0.45 1,-1 z m -26,-1 c 0,-0.55 -0.47656,-1 -1.05902,-1 -0.58246,0 -0.7809,0.45 -0.44098,1 0.33992,0.55 0.81648,1 1.05902,1 0.24254,0 0.44098,-0.45 0.44098,-1 z m 25,-4.55902 c 0,-0.24254 -0.45,-0.44098 -1,-0.44098 -0.55,0 -1,0.47656 -1,1.05902 0,0.58246 0.45,0.7809 1,0.44098 0.55,-0.33992 1,-0.81648 1,-1.05902 z m 4.18514,-8.07463 c -0.50283,-0.89851 -0.56728,-3.17197 -0.14324,-5.05215 0.54717,-2.42604 0.43526,-3.30842 -0.38545,-3.03934 -1.26457,0.41461 -2.1204,6.07371 -1.25829,8.32034 0.29649,0.77264 1.02555,1.4048 1.62015,1.4048 0.70668,0 0.76446,-0.56576 0.16683,-1.63365 z m -1.58097,-13.09552 c -0.33229,-0.33229 -0.56864,0.25834 -0.52522,1.3125 0.048,1.16495 0.28494,1.4019 0.60416,0.60417 0.28887,-0.72188 0.25335,-1.58438 -0.0789,-1.91667 z m 16.64514,-5.74696 c -0.26535,-1.38813 -0.88,-2.52387 -1.36589,-2.52387 -1.01046,0 -1.20999,4.34009 -0.24394,5.30615 1.22306,1.22306 2.08931,-0.27407 1.60983,-2.78228 z m -4.24931,-0.41688 c 0,-0.49116 -0.73865,-1.17646 -1.64144,-1.52289 -1.37248,-0.52667 -1.43434,-0.38034 -0.37756,0.89301 1.44013,1.73524 2.019,1.91584 2.019,0.62988 z m 5.18333,-29.32366 c -0.71756,-0.71756 -1.18333,-0.7766 -1.18333,-0.15 0,1.33478 1.18261,2.51739 1.85,1.85 0.28417,-0.28416 -0.0158,-1.04916 -0.66667,-1.7 z m -6.18333,-2.84235 c 0,-0.58246 -0.45,-0.7809 -1,-0.44098 -0.55,0.33992 -1,0.81648 -1,1.05902 0,0.24254 0.45,0.44098 1,0.44098 0.55,0 1,-0.47656 1,-1.05902 z m 28.9243,-12.44098 c -0.0116,-2.87767 -0.0709,-2.83689 -1.45314,1 -1.84729,5.12762 -1.84823,6.38079 -0.003,3.94113 0.8075,-1.06762 1.46275,-3.29113 1.4561,-4.94113 z m -19.3359,-4.24494 c -1.0924,-1.0924 -1.84148,0.64486 -1.05718,2.45181 0.74368,1.71337 0.79759,1.71181 1.21194,-0.0351 0.2385,-1.00555 0.16886,-2.09305 -0.15476,-2.41667 z m 5.87551,-6.50506 c 0.39998,-2.3375 0.78602,-5.375 0.85786,-6.75 0.0718,-1.375 0.70383,-3.09464 1.40442,-3.82143 0.7006,-0.72678 1.27381,-2.15248 1.27381,-3.16821 0,-1.01573 0.30147,-2.63241 0.66994,-3.59262 0.48938,-1.2753 0.31732,-1.5279 -0.63841,-0.93723 -1.02843,0.63561 -1.16207,0.0289 -0.62463,-2.83595 0.80783,-4.30608 0.25827,-4.58937 -2.05478,-1.05922 -1.33319,2.03472 -1.4226,2.75306 -0.4198,3.37283 0.96502,0.59641 1.00649,1.28765 0.17093,2.84891 -0.60679,1.13379 -1.10325,3.18946 -1.10325,4.56816 0,1.3787 -0.49804,2.81453 -1.10676,3.19074 -0.77145,0.47678 -0.69571,0.94335 0.25,1.53997 1.12309,0.70853 1.06895,1.3662 -0.31437,3.81861 -1.57795,2.79748 -1.48358,7.07544 0.15609,7.07544 0.41344,0 1.07896,-1.9125 1.47895,-4.25 z m 8.89772,0.75 c 0.31658,-0.825 0.13972,-1.5 -0.39301,-1.5 -0.53274,0 -0.96862,0.675 -0.96862,1.5 0,0.825 0.17686,1.5 0.39301,1.5 0.21616,0 0.65203,-0.675 0.96862,-1.5 z m -15.76059,-4.04657 c 0.70695,-2.81669 0.0986,-4.00387 -1.53451,-2.99455 -1.33904,0.82758 -1.41184,5.54112 -0.0856,5.54112 0.53952,0 1.26856,-1.14596 1.62009,-2.54657 z m 2.85625,-1.52253 c -0.85723,-1.38704 -1.45729,-1.12841 -1.45729,0.62812 0,0.85746 0.45734,1.27636 1.01631,0.9309 0.55897,-0.34546 0.75742,-1.04702 0.44098,-1.55902 z m 0.18718,-10.73767 c -0.84566,-2.75542 -1.15879,-3.03518 -1.71482,-1.53209 -0.83449,2.25583 -0.68557,3.92417 0.32035,3.58886 0.4125,-0.1375 0.75,0.167 0.75,0.67668 0,0.50967 -0.7875,1.13247 -1.75,1.38399 -1.66667,0.43555 -1.66667,0.46285 0,0.57333 0.9625,0.0638 1.78163,0.6785 1.82029,1.366 0.0387,0.6875 0.41644,0.36444 0.83952,-0.7179 0.42308,-1.08235 0.30368,-3.48484 -0.26534,-5.33887 z m 17.18762,1.55677 c 2.96066,-4.82265 7.25205,-14.92003 6.01646,-14.1564 -0.58951,0.36434 -2.14092,3.07983 -3.44758,6.03442 -1.30666,2.95459 -2.63298,5.37198 -2.94738,5.37198 -0.31439,0 -0.31273,-0.41891 0.004,-0.9309 0.31644,-0.512 0.19299,-1.1672 -0.27431,-1.45601 -0.79467,-0.49113 -1.1228,0.66313 -1.27083,4.47024 -0.0659,1.69373 -2.91215,2.26387 -2.91215,0.58334 0,-0.55 -0.28913,-0.71088 -0.6425,-0.3575 -0.71836,0.71835 1.44275,3.69083 2.68339,3.69083 0.43779,0 1.69383,-1.4625 2.7912,-3.25 z m -20.6414,-5.03206 c 1.23074,-3.17475 0.8065,-4.03783 -1.54182,-3.13669 -0.90056,0.34557 -1.32289,1.13719 -0.9385,1.75914 0.38439,0.62194 0.63679,2.71229 0.5609,4.64521 -0.0759,1.93292 0.0823,2.6144 0.35147,1.5144 0.26919,-1.1 0.97477,-3.25193 1.56795,-4.78206 z m 5.80931,-2.71794 c 0,-0.87276 -3.06665,-2.26669 -3.66667,-1.66667 -0.20922,0.20923 -0.10757,1.09141 0.22589,1.9604 0.58811,1.53259 3.44078,1.28907 3.44078,-0.29373 z m 7,1 c 0,-0.55 -0.47656,-1 -1.05902,-1 -0.58246,0 -0.7809,0.45 -0.44098,1 0.33992,0.55 0.81648,1 1.05902,1 0.24254,0 0.44098,-0.45 0.44098,-1 z m -31.02006,-4.52417 c -0.69572,-0.83829 -1.47088,-1.31823 -1.72258,-1.06653 -0.69349,0.6935 0.71555,2.5907 1.9241,2.5907 0.6631,0 0.58723,-0.57378 -0.20152,-1.52417 z m 24.52006,-0.72583 c -0.15368,-2.08594 -0.5785,-2.30948 -3.61078,-1.9 -0.78339,0.10579 2.32097,3.56572 3.69366,4.11673 0.0456,0.0183 0.008,-0.97923 -0.0829,-2.21673 z m 17.88156,-1.30194 c 0.34149,-0.88992 0.17385,-1.29132 -0.39301,-0.94098 -0.5437,0.33602 -0.98855,1.0344 -0.98855,1.55194 0,1.43843 0.71677,1.12146 1.38156,-0.61096 z m -29.53527,-9.94806 c 1.34967,-2.8572 -0.46607,-4.38412 -2.31439,-1.94625 -0.81157,1.07044 -1.28854,2.47968 -1.05992,3.13164 0.22862,0.65197 0.0286,1.32697 -0.44459,1.5 -0.47315,0.17304 -1.13437,2.11461 -1.4694,4.31461 l -0.60913,4 2.47634,-4.5 c 1.36199,-2.475 2.90148,-5.4 3.42109,-6.5 z m 15.81163,9.05093 c -0.35381,-0.92201 -0.0754,-1.26463 0.76543,-0.94197 0.95103,0.36495 1.18441,-0.21 0.83249,-2.05093 -0.56465,-2.95381 -0.87781,-3.07891 -2.82727,-1.12946 -2.3481,2.3481 -1.7109,4.79823 1.42842,5.49248 0.19634,0.0434 0.10676,-0.57313 -0.19907,-1.37012 z m -26.65792,-3.05093 c 0,-1.925 -0.17577,-3.5 -0.39059,-3.5 -0.21483,0 -0.57447,1.575 -0.7992,3.5 -0.22474,1.925 -0.049,3.5 0.39059,3.5 0.43956,0 0.7992,-1.575 0.7992,-3.5 z m 43,-0.55902 c 0,-0.58246 -0.45,-0.7809 -1,-0.44098 -0.55,0.33992 -1,0.81648 -1,1.05902 0,0.24254 0.45,0.44098 1,0.44098 0.55,0 1,-0.47656 1,-1.05902 z m -62.29386,-5.19098 c 0.0217,-0.6875 0.20921,-1.89827 0.41667,-2.69061 0.20745,-0.79234 -0.33649,-1.59861 -1.20877,-1.79173 -1.66627,-0.36891 -1.98372,2.19255 -0.55768,4.49992 0.96443,1.56049 1.30008,1.55612 1.34978,-0.0176 z m 7.87106,-1.68593 c 1.01734,0.84431 1.4228,0.86095 1.4228,0.0584 0,-0.61734 0.1125,-1.4098 0.25,-1.76102 0.1375,-0.35122 -0.9875,-0.77052 -2.5,-0.93178 -2.27692,-0.24276 -2.75,0.0965 -2.75,1.97191 0,3.05932 1.41797,4.32815 1.8272,1.63501 0.26414,-1.73828 0.60143,-1.92572 1.75,-0.97249 z m 3.91272,1.91962 c -0.34546,-0.55897 -1.04702,-0.75742 -1.55902,-0.44098 -1.38704,0.85723 -1.12841,1.45729 0.62812,1.45729 0.85746,0 1.27636,-0.45734 0.9309,-1.01631 z m 3.69758,-0.6668 c -0.72188,-0.28887 -1.58438,-0.25335 -1.91667,0.0789 -0.33229,0.3323 0.25834,0.56864 1.3125,0.52522 1.16495,-0.048 1.4019,-0.28494 0.60417,-0.60416 z m 1.56752,-6.97668 c 0.31236,-2.3324 0.19529,-2.43338 -1.2016,-1.03649 -0.85122,0.85123 -1.26837,2.27552 -0.92701,3.16511 0.79296,2.06641 1.68648,1.17288 2.12861,-2.12862 z m 33.62654,0.10785 c 0.34149,-0.88992 0.17385,-1.29132 -0.39301,-0.94098 -0.5437,0.33602 -0.98855,1.0344 -0.98855,1.55194 0,1.43843 0.71677,1.12146 1.38156,-0.61096 z m -27.38156,-1.36627 c 0,-1.05502 0.26174,-2.74252 0.58164,-3.75 0.53223,-1.67622 0.44731,-1.66694 -1,0.10934 -1.76654,2.16806 -2.12133,5.55887 -0.58164,5.55887 0.55,0 1,-0.8632 1,-1.91821 z m -25.39583,-5.81096 c -0.33229,-0.33229 -0.56864,0.25834 -0.52522,1.3125 0.048,1.16495 0.28494,1.4019 0.60416,0.60417 0.28887,-0.72188 0.25335,-1.58437 -0.0789,-1.91667 z m 36.39583,1.67015 c 0,-0.58246 -0.45,-0.7809 -1,-0.44098 -0.55,0.33992 -1,0.81648 -1,1.05902 0,0.24254 0.45,0.44098 1,0.44098 0.55,0 1,-0.47656 1,-1.05902 z m -8.61844,-5.49292 c 0.34149,-0.88992 0.17385,-1.29132 -0.39301,-0.94098 -0.5437,0.33602 -0.98855,1.0344 -0.98855,1.55194 0,1.43843 0.71677,1.12146 1.38156,-0.61096 z m -4.38156,-7.44806 c 0,-0.55 -0.45,-1 -1,-1 -0.55,0 -1,0.45 -1,1 0,0.55 0.45,1 1,1 0.55,0 1,-0.45 1,-1 z m 0,-5.5 c 0,-0.825 -0.45,-1.5 -1,-1.5 -0.55,0 -1,0.675 -1,1.5 0,0.825 0.45,1.5 1,1.5 0.55,0 1,-0.675 1,-1.5 z M 474.9361,536.94551 c -0.0434,-1.05416 0.19293,-1.64479 0.52522,-1.3125 0.33229,0.33229 0.36781,1.19479 0.0789,1.91667 -0.31922,0.79773 -0.55618,0.56078 -0.60416,-0.60417 z m 17.60274,-2.23497 c -0.37493,-0.37493 -0.62041,-2.29419 -0.54551,-4.26503 0.0897,-2.36114 0.28466,-2.81085 0.5715,-1.3185 0.23942,1.24566 0.85314,2.0066 1.36381,1.69098 0.51068,-0.31561 0.92162,0.0152 0.9132,0.73517 -0.0223,1.90993 -1.51037,3.95 -2.303,3.15738 z m 0.39726,-10.76503 c -0.0434,-1.05416 0.19293,-1.64479 0.52522,-1.3125 0.33229,0.33229 0.36781,1.19479 0.0789,1.91667 -0.31922,0.79773 -0.55618,0.56078 -0.60416,-0.60417 z m -18.07895,-22.08333 c 0,-0.825 0.43588,-1.5 0.96862,-1.5 0.53273,0 0.70959,-0.675 0.39301,-1.5 -0.39941,-1.04085 0.0693,-1.5 1.53138,-1.5 2.5132,0 2.63078,0.80717 0.55029,3.77749 -1.79226,2.55881 -3.4433,2.90525 -3.4433,0.72251 z m -120,-0.44098 c 0,-0.58246 0.45,-1.05902 1,-1.05902 0.55,0 1,0.19844 1,0.44098 0,0.24254 -0.45,0.7191 -1,1.05902 -0.55,0.33992 -1,0.14148 -1,-0.44098 z m -21.98469,-0.80902 c 0.008,-0.4125 0.45842,-1.425 1,-2.25 0.87528,-1.33333 1.0941,-1.33333 1.96938,0 1.47592,2.24832 1.2292,3 -0.98469,3 -1.1,0 -1.99311,-0.3375 -1.98469,-0.75 z m 9.05424,-1.67597 c -3.7461,-3.98754 -0.56477,-6.01209 5.22328,-3.32403 2.97332,1.38085 3.58963,4.19739 1.12538,5.14301 -2.72699,1.04644 -3.99916,0.68195 -6.34866,-1.81898 z m 43.09097,-2.12108 c -0.63829,-1.40088 -1.16052,-3.87588 -1.16052,-5.5 0,-2.72121 0.28121,-2.95295 3.58333,-2.95295 2.43603,0 3.44164,-0.40022 3.14079,-1.25 -0.2434,-0.6875 -1.6309,-1.16528 -3.08333,-1.06174 -2.14837,0.15316 -2.64079,-0.24356 -2.64079,-2.12755 0,-2.58889 2.939,-5.866 3.07895,-3.43315 0.0583,1.01346 0.21087,1.04549 0.58333,0.12244 0.83177,-2.06135 2.61261,-1.40918 2.04797,0.75 -0.28766,1.1 -0.083,2 0.4548,2 1.52677,0 3.81998,-2.67295 3.03733,-3.54028 -0.38631,-0.42811 0.0851,-0.4958 1.04762,-0.15043 1.177,0.42233 1.75,0.12775 1.75,-0.89969 0,-0.8402 0.4105,-1.27393 0.91222,-0.96385 0.50171,0.31008 0.76114,-0.22587 0.57651,-1.19099 -0.18464,-0.96512 -0.37014,-1.9457 -0.41222,-2.17907 -0.0421,-0.23338 -1.20151,0.63256 -2.57651,1.92431 -1.89283,1.77822 -2.5,1.97606 -2.5,0.81462 0,-1.17134 -0.94882,-1.46642 -4.01339,-1.24814 -2.32673,0.16573 -3.76859,-0.11022 -3.4309,-0.65662 0.32037,-0.51837 1.00139,-0.68359 1.51339,-0.36715 1.6959,1.04812 3.12989,-0.59801 1.85701,-2.13174 -0.89467,-1.07801 -0.89467,-1.74393 0,-2.82194 0.80051,-0.96456 0.83925,-1.61601 0.12245,-2.05902 -0.57671,-0.35642 -1.04856,-1.10363 -1.04856,-1.66046 0,-0.55682 0.70714,-0.30526 1.57143,0.55902 1.94278,1.94278 2.52955,1.99815 1.82901,0.17258 -0.68139,-1.77568 1.57567,-3.25783 2.553,-1.67648 0.40141,0.6495 1.1386,1.10386 1.6382,1.0097 0.4996,-0.0942 1.58336,-0.11103 2.40836,-0.0375 1.24762,0.11123 1.26746,0.28102 0.11787,1.0091 -1.0977,0.69522 -0.97276,1.00529 0.60712,1.50672 1.43939,0.45685 1.86571,1.27757 1.54233,2.96922 -0.33294,1.74165 0.086,2.47721 1.64289,2.88434 1.77468,0.46409 2.08979,1.31454 2.08979,5.64011 0,4.23897 -0.30213,5.09362 -1.80064,5.09362 -4.04097,0 -7.23248,2.47183 -8.3925,6.5 -2.13271,7.40587 -6.41186,9.85712 -8.64634,4.95295 z m 17.02281,-20.66962 c -0.71756,-0.71756 -1.18333,-0.7766 -1.18333,-0.15 0,0.56834 0.3,1.33334 0.66667,1.7 0.36666,0.36667 0.89916,0.43417 1.18333,0.15 0.28417,-0.28416 -0.0158,-1.04916 -0.66667,-1.7 z m -5.4651,16.92478 c -0.79289,-2.06625 1.89474,-4.9025 4.30047,-4.53829 l 2.18095,0.33018 -2.1724,2.75 c -2.39048,3.02605 -3.556,3.42045 -4.30902,1.45811 z m 80.28177,0.89888 c 0,-0.21616 0.675,-0.65203 1.5,-0.96862 0.825,-0.31658 1.5,-0.13972 1.5,0.39301 0,0.53274 -0.675,0.96862 -1.5,0.96862 -0.825,0 -1.5,-0.17686 -1.5,-0.39301 z m -97.41705,-3.47278 c -0.43077,-0.697 -0.51316,-1.53733 -0.18309,-1.86741 0.89497,-0.89496 1.87077,0.4213 1.38739,1.87145 -0.33872,1.01617 -0.57427,1.01538 -1.2043,-0.004 z m -76.76945,-3.52903 c 0.33485,-1.28049 0.11684,-1.68016 -0.65598,-1.20253 -0.63663,0.39346 -1.15752,0.20924 -1.15752,-0.40937 0,-2.2856 2.03509,-4.81334 4.72889,-5.87365 1.52411,-0.59991 3.52089,-1.63364 4.43729,-2.2972 1.31201,-0.95001 2.00283,-0.92705 3.25,0.108 3.90732,3.24279 -0.86138,10.61586 -7.26076,11.22614 -3.38022,0.32235 -3.78302,0.13537 -3.34192,-1.55139 z m 7.64379,-6.67428 c -0.85723,-1.38704 -1.45729,-1.12841 -1.45729,0.62812 0,0.85746 0.45734,1.27636 1.01631,0.9309 0.55897,-0.34546 0.75742,-1.04702 0.44098,-1.55902 z m 176.54271,5.5691 c 0,-0.825 0.17686,-1.5 0.39301,-1.5 0.21616,0 0.65203,0.675 0.96862,1.5 0.31658,0.825 0.13972,1.5 -0.39301,1.5 -0.53274,0 -0.96862,-0.675 -0.96862,-1.5 z m -108.87812,-0.40351 c -0.87034,-0.55127 -1.06374,-1.37464 -0.52489,-2.23469 0.46927,-0.74899 0.91899,-3.14249 0.99937,-5.31888 0.0804,-2.1764 0.65408,-4.1264 1.27489,-4.33334 0.62081,-0.20693 1.12875,-0.8153 1.12875,-1.35193 0,-0.53663 -0.51953,-0.6546 -1.15451,-0.26216 -0.7484,0.46254 -0.88159,0.27194 -0.37864,-0.54185 0.58536,-0.94713 1.27418,-0.75705 2.80538,0.77415 1.80688,1.80688 1.88996,2.36644 0.75732,5.10086 -0.6997,1.68924 -1.9826,3.07135 -2.85087,3.07135 -1.22786,0 -1.31201,0.26667 -0.37868,1.2 1.31741,1.31741 1.6458,4.8091 0.45,4.78469 -0.4125,-0.008 -1.37015,-0.40811 -2.12812,-0.8882 z m -52.04293,-3.34649 c -0.0917,-3.19286 -1.60461,-3.6719 -2.3687,-0.75 -0.7274,2.78158 -3.36678,2.50462 -4.10348,-0.4306 -1.00575,-4.00723 2.42996,-10.07672 7.03636,-12.43035 1.73299,-0.88547 2.642,-0.70261 4.75,0.95554 4.6504,3.65801 2.62884,12.90541 -2.82123,12.90541 -0.77288,0 -1.63221,0.5625 -1.90962,1.25 -0.27741,0.6875 -0.53991,0.0125 -0.58333,-1.5 z m 5.95004,-9.69582 c -0.92238,-1.7235 -1.41201,-1.81179 -4.28518,-0.77274 l -3.24381,1.17308 3.5,0.6411 c 1.925,0.3526 3.85333,0.70034 4.28518,0.77274 0.43185,0.0724 0.31657,-0.74398 -0.25619,-1.81418 z m 152.97101,9.17525 c 0,-0.5585 0.675,-1.27447 1.5,-1.59106 0.825,-0.31658 1.5,-0.41982 1.5,-0.22943 0,0.19039 -0.675,0.90637 -1.5,1.59106 -0.86459,0.71755 -1.5,0.81474 -1.5,0.22943 z m -139.84518,-0.94764 c -1.76228,-0.33502 -2.21654,-0.93776 -1.82762,-2.42499 0.28465,-1.08853 -0.0307,-2.18951 -0.70068,-2.44662 -2.1148,-0.81153 -0.67152,-7.22962 2.11948,-9.42502 2.825,-2.22215 4.254,-2.52164 4.254,-0.89154 0,0.60149 -0.9,1.32897 -2,1.61663 -1.1,0.28766 -2,0.94709 -2,1.4654 0,0.51831 0.44485,0.66745 0.98855,0.33143 0.5437,-0.33603 0.74822,0.0153 0.45449,0.78077 -0.29373,0.76545 0.13004,1.94287 0.94171,2.6165 1.20289,0.99831 1.68008,0.84303 2.58069,-0.83978 0.60771,-1.13552 1.79442,-2.06457 2.63713,-2.06457 1.08735,0 1.37046,-0.65326 0.97512,-2.25 -0.30639,-1.2375 0.13698,-0.73259 0.98527,1.12202 2.80659,6.13599 -0.46109,12.9176 -4.89416,10.15716 -1.90535,-1.18644 -2.01801,-1.16796 -0.92748,0.15217 1.13756,1.37706 0.73744,3.00824 -0.65799,2.68247 -0.32083,-0.0749 -1.63866,-0.33681 -2.92851,-0.58203 z m 145.40947,-3.98866 c -0.54268,-1.4252 -0.42782,-1.54006 0.5598,-0.5598 0.68342,0.67834 0.99067,1.48524 0.68278,1.79313 -0.30789,0.30789 -0.86705,-0.24711 -1.24258,-1.23333 z m -129.02669,-3.5954 c -2.95428,-4.5088 -2.98359,-8.16083 -0.0887,-11.05568 1.45313,-1.45313 3.35757,-2.64205 4.2321,-2.64205 1.06092,0 0.50123,0.95066 -1.68184,2.85669 -2.17361,1.89776 -2.88213,3.09758 -2.11074,3.57433 0.68195,0.42146 1.04777,0.18088 0.8864,-0.58295 -0.15113,-0.71532 0.7355,-1.45478 1.97028,-1.64323 1.62126,-0.24744 2.09155,0.0574 1.69259,1.09705 -0.4327,1.12761 0.32706,1.39006 3.50494,1.21075 2.23158,-0.12591 4.05741,0.16618 4.05741,0.64909 0,0.48291 -1.13065,2.66907 -2.51254,4.85814 -2.00751,3.18003 -3.1085,3.98013 -5.47699,3.98013 -1.99066,0 -3.45992,-0.75625 -4.47291,-2.30227 z m 23.16694,-0.36678 c -0.35226,-0.56997 0.006,-1.8901 0.79569,-2.93363 1.54521,-2.04138 1.82638,-1.0903 0.60199,2.0363 -0.43697,1.11585 -1.02808,1.49535 -1.39768,0.89733 z m 153.2665,-50.3524 c -1.24684,-0.7736 -1.14749,-1.23704 0.65189,-3.04078 l 2.12293,-2.12808 -0.29457,2.68346 c -0.36707,3.344 -0.64597,3.62348 -2.48025,2.4854 z m 3.59325,-7.27168 c 0.37553,-0.98622 0.93469,-1.54122 1.24258,-1.23333 0.30789,0.30789 6.4e-4,1.11479 -0.68278,1.79313 -0.98762,0.98026 -1.10248,0.8654 -0.5598,-0.5598 z m -18.56429,-18.67549 c 0,-0.53273 0.675,-0.70959 1.5,-0.39301 0.825,0.31659 1.5,0.75246 1.5,0.96862 0,0.21615 -0.675,0.39301 -1.5,0.39301 -0.825,0 -1.5,-0.43588 -1.5,-0.96862 z m 4.34508,-0.57451 c -0.93028,-2.42426 0.36778,-2.86191 1.60908,-0.54252 0.77398,1.44619 0.7892,2.08565 0.0496,2.08565 -0.58661,0 -1.33304,-0.69441 -1.65872,-1.54313 z m 14.65492,-24.39785 c 0,-0.51754 0.44485,-1.21592 0.98855,-1.55194 0.56686,-0.35034 0.7345,0.0511 0.39301,0.94098 -0.66479,1.73242 -1.38156,2.04939 -1.38156,0.61096 z m -8.01641,-3.06916 c -0.92026,-0.56875 -0.42792,-0.92643 1.59208,-1.15662 2.05291,-0.23394 2.88348,-0.85151 2.78723,-2.07248 -0.0754,-0.95658 0.21094,-1.52414 0.63631,-1.26124 0.85992,0.53145 1.96606,-2.86109 1.98714,-6.09453 0.008,-1.15226 -0.88635,-2.9095 -1.98635,-3.90499 -1.74184,-1.57634 -2,-1.60396 -2,-0.214 0,0.87778 -0.44485,1.8709 -0.98855,2.20692 -0.56686,0.35034 -0.7345,-0.0511 -0.39301,-0.94098 0.32755,-0.85357 0.29025,-1.55194 -0.0829,-1.55194 -0.82445,0 -3.52389,2.62386 -3.82127,3.71429 -0.11786,0.43214 -0.98384,0.75191 -1.9244,0.7106 -1.30026,-0.0571 -1.63127,0.60195 -1.38117,2.75 0.36579,3.14162 -0.90004,3.87832 -1.66139,0.96691 -1.21712,-4.65429 4.73477,-12.32599 9.22037,-11.88462 3.52946,0.34729 7.10807,5.97456 6.40917,10.07825 -1.09981,6.4578 -5.16509,10.64956 -8.39328,8.65443 z m -3.41216,-12.91644 c 0,-1.05962 -0.35357,-1.70806 -0.78572,-1.44098 -0.43214,0.26708 -0.78571,1.13404 -0.78571,1.92658 0,0.79254 0.35357,1.44098 0.78571,1.44098 0.43215,0 0.78572,-0.86696 0.78572,-1.92658 z m -14.08477,-12.39593 c -1.74073,-2.48523 -1.89048,-3.67749 -0.46191,-3.67749 0.56361,0 1.44169,1.09664 1.95129,2.43697 0.73047,1.92128 1.51878,2.36628 3.72525,2.1029 1.53929,-0.18375 2.68621,-0.83039 2.54871,-1.43698 -0.1375,-0.60659 0.18588,-1.10289 0.71862,-1.10289 0.53273,0 0.71528,-0.7875 0.40566,-1.75 -0.43315,-1.34653 -0.33758,-1.43414 0.41455,-0.38002 0.79951,1.12052 1.17533,1.02947 2.06393,-0.5 0.66591,-1.14619 1.09819,-1.34914 1.11683,-0.52435 0.0167,0.7401 -0.86819,2.6076 -1.96648,4.15 -2.55798,3.59235 -8.2207,3.95951 -10.51645,0.68186 z m -35.95967,-3.63382 c -0.32507,-0.52597 -1.13913,-0.75008 -1.80902,-0.49802 -0.66988,0.25207 -2.65605,-0.42112 -4.41371,-1.49597 -3.4991,-2.1398 -5.06147,-6.89659 -3.85025,-11.72246 0.97751,-3.89471 5.82566,-10.37592 7.34793,-9.82301 0.71606,0.26008 1.06659,0.0921 0.77895,-0.37333 -0.28765,-0.46542 1.45953,-1.86587 3.88263,-3.11212 5.46153,-2.80897 10.06004,-2.20038 14.46485,1.91432 2.69643,2.51885 3.07163,3.52989 3.07163,8.277 0,3.33525 -0.58522,6.15157 -1.52704,7.34879 -1.4101,1.79249 -1.47799,1.57739 -0.88646,-2.80887 0.57995,-4.30037 0.45078,-4.75 -1.36455,-4.75 -1.30482,0 -2.22428,0.87315 -2.63259,2.5 -0.34511,1.375 -1.00649,2.5 -1.46974,2.5 -0.46325,0 -0.6373,1.07225 -0.38678,2.38278 0.25053,1.31053 -0.0369,2.68709 -0.63867,3.05902 -0.60179,0.37193 -1.09417,0.22897 -1.09417,-0.31768 0,-0.54666 -0.48391,-2.26072 -1.07535,-3.80902 l -1.07534,-2.8151 -1.31667,2.44962 c -0.72417,1.34728 -1.06379,3.10861 -0.75472,3.91404 0.35993,0.93796 0.14548,1.20703 -0.59653,0.74845 -0.75596,-0.46722 -0.95233,-0.17876 -0.56515,0.83021 0.33688,0.87789 1.08832,1.22451 1.73854,0.80194 0.62987,-0.40934 3.0568,-0.77271 5.39317,-0.80748 4.0695,-0.0606 4.19074,0.0235 2.88604,2 -0.87045,1.31869 -2.67401,2.17522 -4.99795,2.37359 -1.99982,0.1707 -3.63604,0.7332 -3.63604,1.25 0,1.23339 -4.70929,1.21903 -5.47301,-0.0167 z m -4.59728,-14.29367 c 0.0387,-0.9625 -0.32864,-1.75 -0.81621,-1.75 -1.00058,0 -2.06583,5.71434 -1.22247,6.5577 0.65771,0.65771 1.94069,-2.36786 2.03868,-4.8077 z m 6.66794,-5.48568 c -0.59277,-0.59277 -3.59765,0.95337 -3.59765,1.85114 0,0.49582 0.87953,0.35221 1.95452,-0.31913 1.07499,-0.67134 1.8144,-1.36075 1.64313,-1.53201 z m 6.40235,-0.71733 c 0,0.46916 0.4947,0.35831 1.09934,-0.24633 1.37001,-1.37001 0.22676,-5.30066 -1.54173,-5.30066 -0.71918,0 -1.60233,1.4625 -1.96254,3.25 -0.51417,2.55153 -0.86012,2.92763 -1.60968,1.75 -1.07552,-1.68972 -1.32489,-0.0483 -0.37051,2.43877 0.53089,1.38348 0.87236,1.30546 2.5,-0.57122 1.03681,-1.19547 1.88512,-1.78971 1.88512,-1.32056 z m 9,0.95301 c 0,-0.93333 -0.94444,-1.5 -2.5,-1.5 -2.85343,0 -3.38032,1.6233 -0.75,2.31067 3.01232,0.78721 3.25,0.72792 3.25,-0.81067 z m -15.63837,-3 c 0.31658,-0.825 0.13972,-1.5 -0.39301,-1.5 -0.53274,0 -0.96862,0.675 -0.96862,1.5 0,0.825 0.17686,1.5 0.39301,1.5 0.21616,0 0.65203,-0.675 0.96862,-1.5 z m 12.63837,-0.55902 c 0,-0.58246 -0.45,-0.7809 -1,-0.44098 -0.55,0.33992 -1,0.81648 -1,1.05902 0,0.24254 0.45,0.44098 1,0.44098 0.55,0 1,-0.47656 1,-1.05902 z m 21,20.11804 c 0,-0.51754 0.44485,-1.21592 0.98855,-1.55194 0.56686,-0.35034 0.7345,0.0511 0.39301,0.94098 -0.66479,1.73242 -1.38156,2.04939 -1.38156,0.61096 z m 2.81295,-1.79177 c -0.42691,-2.21675 5.06968,-8.24952 6.8825,-7.55388 1.42541,0.54699 4.30455,5.38749 4.30455,7.23697 0,0.57731 -0.45,1.04966 -1,1.04966 -0.55,0 -1.00689,-1.2375 -1.01531,-2.75 -0.0119,-2.14294 -0.22931,-2.41888 -0.98469,-1.25 -0.53316,0.825 -0.97627,1.10909 -0.98469,0.63131 -0.008,-0.47778 -1.55769,0.30775 -3.44283,1.74561 -3.00221,2.28989 -3.46872,2.40037 -3.75953,0.89033 z m 3.18705,-2.32627 c 0,-0.58246 -0.45,-0.7809 -1,-0.44098 -0.55,0.33992 -1,0.81648 -1,1.05902 0,0.24254 0.45,0.44098 1,0.44098 0.55,0 1,-0.47656 1,-1.05902 z m -18,-2.94098 c -3.0776,-3.0776 -2.54998,-7.27444 1.44738,-11.51289 2.74224,-2.90761 3.91838,-3.51386 5.75,-2.96387 3.97508,1.1936 5.45441,3.20343 4.03307,5.47936 -0.67675,1.08364 -1.23045,2.64012 -1.23045,3.45883 0,1.09355 -0.73586,1.3414 -2.77298,0.93397 -2.01368,-0.40273 -3.28314,0.009 -4.63612,1.50416 -1.68672,1.8638 -1.70822,2.11819 -0.22702,2.68658 0.89987,0.34531 2.2882,0.37761 3.08519,0.0718 0.96852,-0.37166 1.26467,-0.0755 0.89301,0.89301 -0.79369,2.06833 -4.00147,1.78967 -6.34208,-0.55093 z m 6.54806,-9.09293 c 1.91505,-3.70332 1.46046,-4.39059 -2.25149,-3.40387 -1.53811,0.40886 -2.23484,0.95015 -1.54829,1.20285 0.7761,0.28567 1.01879,1.37383 0.64159,2.87671 -0.87377,3.48139 1.24263,3.02859 3.15819,-0.67569 z"
         style="fill:#338000" />
    </g>
    <text
       sodipodi:linespacing="125%"
       id="text3753"
       y="24.501041"
       x="13.861657"
       style="font-size:22.39999962px;font-style:normal;font-variant:normal;font-weight:normal;font-stretch:normal;text-align:start;line-height:125%;letter-spacing:0px;word-spacing:0px;writing-mode:lr-tb;text-anchor:start;fill:#000000;fill-opacity:1;stroke:none;font-family:Street Humouresque;-inkscape-font-specification:Street Humouresque"
       xml:space="preserve"><tspan
         dy="0 0 0 0 0 7.1700034 0"
         y="24.501041"
         x="13.861657"
         id="tspan3755"
         sodipodi:role="line">inter.act</tspan></text>
  </g>
</svg>
